<svg xmlns="http://www.w3.org/2000/svg" viewBox="0 0 508 374.609"><defs><style>.a{fill:#ebebeb;}.b{fill:#e0e0e0;}.c{fill:#f0f0f0;}.d{fill:#f5f5f5;}.e{fill:#e6e6e6;}.f{fill:#fefefe;}.g,.j,.l,.m,.p{fill:#fff;}.h{fill:#fafafa;}.i{fill:#69e422;}.j{opacity:0.5;}.k{fill:#263238;}.l,.s{opacity:0.2;}.m{opacity:0.6;}.n,.p{opacity:0.3;}.o{opacity:0.7;}.q{fill:#b97964;}.r{opacity:0.1;}.t{fill:#2e353a;}.u{fill:#a24e3f;}</style></defs><g transform="translate(0 -55)"><g transform="translate(0 55)"><rect class="a" width="33.65" height="0.254" transform="translate(423.448 348.986)"/><rect class="a" width="8.829" height="0.254" transform="translate(327.69 351.749)"/><rect class="a" width="19.497" height="0.254" transform="translate(402.935 339.557)"/><rect class="a" width="43.881" height="0.254" transform="translate(53.299 341.264)"/><rect class="a" width="6.431" height="0.254" transform="translate(106.233 341.264)"/><rect class="a" width="95.179" height="0.254" transform="translate(133.574 345.552)"/><path class="a" d="M240.181,342.325H44.011a5.8,5.8,0,0,1-5.8-5.8V60.751A5.8,5.8,0,0,1,44.011,55H240.181a5.8,5.8,0,0,1,5.8,5.8V336.523A5.8,5.8,0,0,1,240.181,342.325ZM44.011,55.2a5.558,5.558,0,0,0-5.547,5.547V336.523a5.558,5.558,0,0,0,5.547,5.547H240.181a5.558,5.558,0,0,0,5.547-5.547V60.751a5.558,5.558,0,0,0-5.547-5.547Z" transform="translate(0.611 -55)"/><path class="a" d="M456.491,342.325H260.3a5.812,5.812,0,0,1-5.8-5.8V60.751A5.812,5.812,0,0,1,260.3,55h196.19a5.8,5.8,0,0,1,5.781,5.751V336.523A5.8,5.8,0,0,1,456.491,342.325ZM260.3,55.2a5.558,5.558,0,0,0-5.547,5.547V336.523a5.558,5.558,0,0,0,5.547,5.547h196.19a5.558,5.558,0,0,0,5.547-5.547V60.751a5.558,5.558,0,0,0-5.547-5.547Z" transform="translate(4.072 -55)"/><rect class="a" width="508" height="0.254" transform="translate(0 332.638)"/><path class="a" d="M81.471,164.24h1.077a1.341,1.341,0,0,1,1.341,1.341V368.71H80.13V165.581a1.341,1.341,0,0,1,1.341-1.341Z" transform="translate(1.282 -53.252)"/><circle class="b" cx="22.748" cy="22.748" r="22.748" transform="translate(54.974 125.639) rotate(-22.5)"/><circle class="c" cx="22.748" cy="22.748" r="22.748" transform="translate(53.569 124.24) rotate(-22.5)"/><path class="b" d="M92.73,195.035a2.215,2.215,0,1,1-2.2-2.2,2.215,2.215,0,0,1,2.2,2.2Z" transform="translate(1.413 -52.795)"/><path class="b" d="M75.07,195.035a2.215,2.215,0,1,1-2.215-2.2,2.215,2.215,0,0,1,2.215,2.2Z" transform="translate(1.13 -52.795)"/><path class="b" d="M95.087,181.37H67.5a1.422,1.422,0,0,0-1.422,1.412v12.436h3.282a3.556,3.556,0,1,1,7.112,0H87.335a3.556,3.556,0,1,1,7.112,0h3.607V184.3a2.936,2.936,0,0,0-2.967-2.926Z" transform="translate(1.057 -52.978)"/><rect class="d" width="3.373" height="6.492" transform="translate(68.763 131.247)"/><rect class="d" width="3.373" height="3.373" transform="translate(73.944 131.247)"/><rect class="d" width="3.373" height="3.373" transform="translate(79.136 131.247)"/><rect class="d" width="3.373" height="3.373" transform="translate(84.318 131.247)"/><rect class="d" width="3.373" height="3.373" transform="translate(95.697 131.247)"/><rect class="d" width="3.373" height="6.492" transform="translate(89.51 131.247)"/><rect class="d" width="30.825" height="105.806" transform="translate(267.228 209.936)"/><rect class="e" width="38.171" height="102.514" transform="translate(296.276 213.238)"/><rect class="f" width="5.293" height="5.293" transform="translate(312.715 218.704)"/><rect class="f" width="5.293" height="5.293" transform="translate(301.325 228.336)"/><rect class="f" width="5.293" height="5.293" transform="translate(312.715 237.968)"/><rect class="f" width="5.293" height="5.293" transform="translate(324.104 237.968)"/><rect class="f" width="5.293" height="5.293" transform="translate(301.325 247.599)"/><rect class="f" width="5.293" height="5.293" transform="translate(324.104 247.599)"/><rect class="f" width="5.293" height="5.293" transform="translate(312.715 257.231)"/><rect class="f" width="5.293" height="5.293" transform="translate(312.715 276.494)"/><rect class="f" width="5.293" height="5.293" transform="translate(324.104 276.494)"/><rect class="f" width="5.293" height="5.293" transform="translate(301.325 286.126)"/><rect class="f" width="5.293" height="5.293" transform="translate(324.104 286.126)"/><path class="a" d="M268.653,367.188H226.56V293.061l42.093-15.931Z" transform="translate(3.625 -51.446)"/><rect class="g" width="6.208" height="6.208" transform="translate(248.128 241.066)"/><rect class="g" width="6.208" height="6.208" transform="translate(261.488 241.066)"/><rect class="g" width="6.208" height="6.208" transform="translate(234.777 252.364)"/><rect class="g" width="6.208" height="6.208" transform="translate(248.128 263.662)"/><rect class="g" width="6.208" height="6.208" transform="translate(261.488 263.662)"/><rect class="g" width="6.208" height="6.208" transform="translate(234.777 274.95)"/><rect class="g" width="6.208" height="6.208" transform="translate(254.345 294.985) rotate(180)"/><rect class="g" width="6.208" height="6.208" transform="translate(240.975 294.985) rotate(180)"/><rect class="g" width="6.208" height="6.208" transform="translate(267.696 306.273) rotate(180)"/><path class="c" d="M375.716,248.3V227.735h-4.928V204.773h-4.145V194.4H350v10.373h-4.145v22.962h-4.928V248.3H335.94V368.512H380.7V248.3Z" transform="translate(5.375 -52.77)"/><rect class="f" width="6.208" height="6.208" transform="translate(360.599 201.94)"/><rect class="f" width="6.208" height="6.208" transform="translate(373.949 201.94)"/><rect class="f" width="6.208" height="6.208" transform="translate(347.238 224.536)"/><rect class="f" width="6.208" height="6.208" transform="translate(373.949 224.536)"/><rect class="f" width="6.208" height="6.208" transform="translate(360.599 235.824)"/><rect class="f" width="6.208" height="6.208" transform="translate(347.238 247.122)"/><rect class="f" width="6.208" height="6.208" transform="translate(360.599 247.122)"/><rect class="f" width="6.208" height="6.208" transform="translate(373.949 258.42)"/><rect class="f" width="6.208" height="6.208" transform="translate(347.238 269.718)"/><rect class="f" width="6.208" height="6.208" transform="translate(360.599 281.015)"/><rect class="f" width="6.208" height="6.208" transform="translate(373.949 281.015)"/><path class="d" d="M420.034,367.513H386.76V256.83l33.274,15.839Z" transform="translate(6.188 -51.771)"/><rect class="g" width="6.208" height="6.208" transform="translate(398.75 221.986)"/><rect class="g" width="6.208" height="6.208" transform="translate(412.1 233.284)"/><rect class="g" width="6.208" height="6.208" transform="translate(398.75 244.582)"/><rect class="g" width="6.208" height="6.208" transform="translate(412.1 255.88)"/><rect class="g" width="6.208" height="6.208" transform="translate(412.1 267.178)"/><rect class="g" width="6.208" height="6.208" transform="translate(398.75 278.465)"/><rect class="g" width="6.208" height="6.208" transform="translate(412.1 301.061)"/><rect class="c" width="36.281" height="15.839" transform="translate(94.386 265.562)"/><path class="c" d="M90.033,321.68H92.98v5.08H90.033a2.113,2.113,0,0,1-2.113-2.113v-.833a2.113,2.113,0,0,1,2.113-2.134Z" transform="translate(1.407 -50.733)"/><path class="c" d="M2.113,0H5.06V5.08H2.113A2.113,2.113,0,0,1,0,2.967V2.134A2.113,2.113,0,0,1,2.113,0Z" transform="translate(135.717 276.007) rotate(180)"/><rect class="b" width="5.05" height="20.218" transform="translate(91.857 263.368)"/><rect class="b" width="5.05" height="20.218" transform="translate(128.138 263.368)"/><path class="e" d="M120.657,361.385h-19.5V306.673a9.743,9.743,0,0,1,9.754-9.743h0a9.743,9.743,0,0,1,9.743,9.743Z" transform="translate(1.619 -51.129)"/><path class="b" d="M103.948,357.16H117.99a6.248,6.248,0,0,1,6.248,6.248v3.749H97.7V363.4a6.248,6.248,0,0,1,6.248-6.238Z" transform="translate(1.563 -50.165)"/><circle class="h" cx="8.341" cy="8.341" r="8.341" transform="translate(102.493 279.628) rotate(-76.72)"/><path class="a" d="M112.774,324.171a2.032,2.032,0,1,1-1.981-1.981A2.032,2.032,0,0,1,112.774,324.171Z" transform="translate(1.739 -50.725)"/><path class="b" d="M97.7,309.29h0a2.52,2.52,0,0,1,2.53-2.53h21.478a2.52,2.52,0,0,1,2.52,2.53h0a2.53,2.53,0,0,1-2.52,2.53H100.23A2.53,2.53,0,0,1,97.7,309.29Z" transform="translate(1.563 -50.972)"/><path class="d" d="M106.62,336.81h0a2.53,2.53,0,0,1,2.53,2.53V352.4a2.54,2.54,0,0,1-2.53,2.53h0a2.54,2.54,0,0,1-2.53-2.53V339.34a2.53,2.53,0,0,1,2.53-2.53Z" transform="translate(1.665 -50.491)"/><path class="d" d="M114.97,336.81h0a2.54,2.54,0,0,1,2.53,2.53V352.4a2.54,2.54,0,0,1-2.53,2.53h0a2.54,2.54,0,0,1-2.53-2.53V339.34a2.53,2.53,0,0,1,2.53-2.53Z" transform="translate(1.799 -50.491)"/><rect class="e" width="42.042" height="16.967" transform="translate(48.849 315.671)"/><rect class="d" width="42.042" height="16.967" transform="translate(89.682 315.671)"/><rect class="e" width="42.042" height="16.967" transform="translate(130.708 315.671)"/><rect class="d" width="42.042" height="16.967" transform="translate(171.531 315.671)"/><rect class="e" width="42.042" height="16.967" transform="translate(212.568 315.671)"/><rect class="d" width="42.042" height="16.967" transform="translate(253.39 315.671)"/><rect class="e" width="42.042" height="16.967" transform="translate(294.427 315.671)"/><rect class="d" width="42.042" height="16.967" transform="translate(335.25 315.671)"/><rect class="e" width="42.042" height="16.967" transform="translate(376.286 315.671)"/><rect class="d" width="42.042" height="16.967" transform="translate(417.109 315.671)"/></g><g transform="translate(52.111 406.607)"><ellipse class="d" cx="196.992" cy="11.501" rx="196.992" ry="11.501"/></g><g transform="translate(308.732 79.667)"><path class="i" d="M335.5,126.254H310.667a6.675,6.675,0,0,1-6.756-7.407l2.123-24.831a8.25,8.25,0,0,1,8.128-7.4h24.79a6.665,6.665,0,0,1,6.756,7.4l-2.164,24.831a8.26,8.26,0,0,1-8.047,7.407Z" transform="translate(-303.87 -79.161)"/><path class="i" d="M336.838,125.014H312.007a6.675,6.675,0,0,1-6.756-7.407l2.174-24.831a8.24,8.24,0,0,1,8.057-7.4H340.3a6.675,6.675,0,0,1,6.756,7.4l-2.174,24.831a8.24,8.24,0,0,1-8.047,7.407Z" transform="translate(-303.849 -79.181)"/><path class="j" d="M336.838,125.014H312.007a6.675,6.675,0,0,1-6.756-7.407l2.174-24.831a8.24,8.24,0,0,1,8.057-7.4H340.3a6.675,6.675,0,0,1,6.756,7.4l-2.174,24.831a8.24,8.24,0,0,1-8.047,7.407Z" transform="translate(-303.849 -79.181)"/><path class="g" d="M327.027,93.86c-7.752,0-14.478,5-15.016,11.176a9.51,9.51,0,0,0,4.7,8.829,20.055,20.055,0,0,1-3.627,4.816,14.773,14.773,0,0,0,6.025-1.311,15.617,15.617,0,0,0,2.631-1.5,16.743,16.743,0,0,0,3.322.335c7.752,0,14.478-5,15.016-11.176S334.789,93.86,327.027,93.86Z" transform="translate(-303.74 -79.046)"/><path class="i" d="M340.454,96.461a7.742,7.742,0,0,1-7.833-8.6,9.561,9.561,0,0,1,9.337-8.585H343.6a7.742,7.742,0,0,1,7.833,8.585,9.561,9.561,0,0,1-9.286,8.6Z" transform="translate(-303.411 -79.279)"/><path class="g" d="M344.131,87.764a1.717,1.717,0,0,1,.366,1.28,2.123,2.123,0,0,1-.417,1.046,2.347,2.347,0,0,1-1.016.792,3.719,3.719,0,0,1-1.575.3,4.877,4.877,0,0,1-1.382-.193,3.261,3.261,0,0,1-1.118-.528l.711-1.2a2.478,2.478,0,0,0,.843.447,3.191,3.191,0,0,0,1.016.163,1.86,1.86,0,0,0,.945-.224.843.843,0,0,0,.4-.64c0-.559-.356-.833-1.189-.833h-.681l.091-1.016,1.524-1.575h-2.865l.112-1.25h4.714l-.091,1.016-1.666,1.727A2.032,2.032,0,0,1,344.131,87.764Z" transform="translate(-303.308 -79.198)"/><path class="i" d="M374.008,161.924H356.817a6.665,6.665,0,0,1-6.756-7.407l1.5-17.191a8.24,8.24,0,0,1,8.047-7.407h17.2a6.675,6.675,0,0,1,6.756,7.407l-1.5,17.191a8.25,8.25,0,0,1-8.057,7.407Z" transform="translate(-303.132 -78.469)"/><path class="i" d="M375.1,160.924H357.9a6.675,6.675,0,0,1-6.756-7.407l1.5-17.191a8.25,8.25,0,0,1,8.057-7.407h17.191a6.665,6.665,0,0,1,6.756,7.407l-1.5,17.191A8.24,8.24,0,0,1,375.1,160.924Z" transform="translate(-303.115 -78.485)"/><path class="j" d="M375.1,160.924H357.9a6.675,6.675,0,0,1-6.756-7.407l1.5-17.191a8.25,8.25,0,0,1,8.057-7.407h17.191a6.665,6.665,0,0,1,6.756,7.407l-1.5,17.191A8.24,8.24,0,0,1,375.1,160.924Z" transform="translate(-303.115 -78.485)"/><path class="i" d="M379.481,136.743a6.949,6.949,0,0,1-7.031-7.7,8.575,8.575,0,0,1,8.382-7.7h1.473a6.939,6.939,0,0,1,7.031,7.7,8.575,8.575,0,0,1-8.382,7.7Z" transform="translate(-302.774 -78.606)"/><path class="g" d="M383.26,128.674a1.544,1.544,0,0,1,.488,1.361,1.95,1.95,0,0,1-.366,1.016,2.255,2.255,0,0,1-.9.732,3.383,3.383,0,0,1-1.422.274,4.561,4.561,0,0,1-1.24-.173,2.9,2.9,0,0,1-1.016-.478l.64-1.077a2.113,2.113,0,0,0,.762.406,3.049,3.049,0,0,0,.914.142,1.6,1.6,0,0,0,.843-.2.752.752,0,0,0,.356-.579.61.61,0,0,0-.264-.589,2.083,2.083,0,0,0-1.077-.2H379.43l.61-3.4h3.688l-.1,1.128h-2.52l-.193,1.148h.488A2.774,2.774,0,0,1,383.26,128.674Z" transform="translate(-302.671 -78.533)"/><path class="g" d="M373.151,137.06H363.8a6.35,6.35,0,0,0-6.218,5.71l-.356,4.064a5.151,5.151,0,0,0,5.212,5.71H371.8a6.36,6.36,0,0,0,6.218-5.71l.345-4.064a5.141,5.141,0,0,0-5.212-5.71Zm-7.813,12.04.762-8.616,6.421,4.308Z" transform="translate(-303.017 -78.354)"/></g><g transform="translate(113.387 89.754)"><path class="i" d="M270.324,89.22H243.908l-26.568,304.1h26.416a24.658,24.658,0,0,0,24.079-22.149l22.7-259.822A19.964,19.964,0,0,0,270.324,89.22Z" transform="translate(-109.91 -89.207)"/><path class="k" d="M240.632,393.319H131.92a19.964,19.964,0,0,1-20.2-22.149L134.45,111.349A24.648,24.648,0,0,1,158.529,89.21H267.241a19.964,19.964,0,0,1,20.2,22.139L264.711,371.17A24.658,24.658,0,0,1,240.632,393.319Z" transform="translate(-111.602 -89.207)"/><path class="l" d="M124.44,392.022h0a21.093,21.093,0,0,0,7.275,1.27H240.427a24.658,24.658,0,0,0,24.079-22.149l22.728-259.822A19.975,19.975,0,0,0,275.5,90.92h0Z" transform="translate(-111.396 -89.18)"/><path class="i" d="M223.945,97.72a2.936,2.936,0,0,0-2.865,2.631l-.345,3.942a7.935,7.935,0,0,1-7.752,7.112H208.6a6.431,6.431,0,0,1-6.513-7.112l.345-3.942a2.367,2.367,0,0,0-2.4-2.631h-42.4a15.037,15.037,0,0,0-14.691,13.492L120.221,371.034a12.192,12.192,0,0,0,12.324,13.482H241.257A15.047,15.047,0,0,0,255.949,371l22.718-259.791A12.192,12.192,0,0,0,266.3,97.72Z" transform="translate(-111.465 -89.071)"/><path class="m" d="M223.945,97.72a2.936,2.936,0,0,0-2.865,2.631l-.345,3.942a7.935,7.935,0,0,1-7.752,7.112H208.6a6.431,6.431,0,0,1-6.513-7.112l.345-3.942a2.367,2.367,0,0,0-2.4-2.631h-42.4a15.037,15.037,0,0,0-14.691,13.492L120.221,371.034a12.192,12.192,0,0,0,12.324,13.482H241.257A15.047,15.047,0,0,0,255.949,371l22.718-259.791A12.192,12.192,0,0,0,266.3,97.72Z" transform="translate(-111.465 -89.071)"/><path class="n" d="M215.279,102.08a5.608,5.608,0,0,1-5.476,5.08,4.542,4.542,0,0,1-4.592-5.08A5.608,5.608,0,0,1,210.687,97a4.542,4.542,0,0,1,4.592,5.08Z" transform="translate(-110.104 -89.082)"/><path class="o" d="M212.75,102.04a2.824,2.824,0,0,1-2.764,2.54,2.286,2.286,0,0,1-2.316-2.54,2.824,2.824,0,0,1,2.764-2.54,2.286,2.286,0,0,1,2.316,2.54Z" transform="translate(-110.065 -89.042)"/><path class="i" d="M188.661,371.821h-3.983A3.637,3.637,0,0,1,181,367.757l.345-3.993a4.491,4.491,0,0,1,4.379-4.064h3.993a3.637,3.637,0,0,1,3.678,4.064l-.356,3.993A4.481,4.481,0,0,1,188.661,371.821Zm-3.109-10.008a2.225,2.225,0,0,0-2.174,2.032l-.345,3.993a1.8,1.8,0,0,0,1.819,2.032h3.993a2.215,2.215,0,0,0,2.164-2.032l.356-3.993a1.809,1.809,0,0,0-1.829-2.032Z" transform="translate(-110.492 -84.879)"/><path class="i" d="M140.615,370.788h0a.914.914,0,0,1-.925-1.016l.7-7.976a1.118,1.118,0,0,1,1.1-1.016h0a.925.925,0,0,1,.935,1.016l-.7,7.976A1.138,1.138,0,0,1,140.615,370.788Z" transform="translate(-111.152 -84.862)"/><path class="i" d="M145.545,370.788h0a.914.914,0,0,1-.925-1.016l.691-7.976a1.138,1.138,0,0,1,1.107-1.016h0a.914.914,0,0,1,.925,1.016l-.691,7.976a1.138,1.138,0,0,1-1.107,1.016Z" transform="translate(-111.073 -84.862)"/><path class="i" d="M150.465,370.788h0a.914.914,0,0,1-.925-1.016l.7-7.976a1.128,1.128,0,0,1,1.107-1.016h0a.914.914,0,0,1,.925,1.016l-.7,7.976a1.128,1.128,0,0,1-1.107,1.016Z" transform="translate(-110.995 -84.862)"/><path class="i" d="M232.076,371.1l-4.846-5.314,5.771-5.3a1.016,1.016,0,0,1,1.443,0h0a1.016,1.016,0,0,1-.132,1.433l-4.206,3.871,3.536,3.881a1.016,1.016,0,0,1-.132,1.433h0A1.016,1.016,0,0,1,232.076,371.1Z" transform="translate(-109.752 -84.871)"/><path class="g" d="M148.832,238.4a9.459,9.459,0,0,1-9.581-10.5,11.694,11.694,0,0,1,11.41-10.5H251.427a9.459,9.459,0,0,1,9.571,10.5,11.674,11.674,0,0,1-11.41,10.5Z" transform="translate(-111.16 -87.156)"/><path class="i" d="M285.6,119.273a2.367,2.367,0,0,1,2.316-2.123,1.91,1.91,0,0,1,1.93,2.123l-1.778,20.32a2.367,2.367,0,0,1-2.306,2.123,1.92,1.92,0,0,1-1.941-2.123Z" transform="translate(-108.846 -88.76)"/><path class="p" d="M285.6,119.273a2.367,2.367,0,0,1,2.316-2.123,1.91,1.91,0,0,1,1.93,2.123l-1.778,20.32a2.367,2.367,0,0,1-2.306,2.123,1.92,1.92,0,0,1-1.941-2.123Z" transform="translate(-108.846 -88.76)"/><path class="i" d="M150.79,109.068h3.048l.264-3.048h-3.048Z" transform="translate(-110.975 -88.938)"/><path class="i" d="M157.054,106.068l-.264,3.048h3.048l.264-3.048.264-3.048h-3.048Z" transform="translate(-110.879 -88.986)"/><path class="i" d="M163.593,100.02l-.274,3.048-.264,3.048-.264,3.048h3.048l.264-3.048.264-3.048.274-3.048Z" transform="translate(-110.783 -89.034)"/><path class="i" d="M259.025,102.42l-.152,1.676h-1.118l-.295,3.353h1.118l-.142,1.676h10.058l.589-6.706Zm4.064,5.08h-3.353l.295-3.353h3.353Z" transform="translate(-109.268 -88.996)"/><path class="g" d="M261.5,119H157.936a8.24,8.24,0,0,0-8.047,7.4L144.281,190.4a6.675,6.675,0,0,0,6.756,7.4H254.6a8.24,8.24,0,0,0,8.047-7.4l5.608-64.008A6.675,6.675,0,0,0,261.5,119Z" transform="translate(-111.079 -88.73)"/><path class="i" d="M165.42,131.412a1.566,1.566,0,0,0,.091-.376l.376-4.267a1.179,1.179,0,0,0-.091-.569l-3.536,2.581Z" transform="translate(-110.791 -88.615)"/><path class="i" d="M159.995,129.178a.732.732,0,0,0,.874,0l4.694-3.424a1.189,1.189,0,0,0-.752-.264h-8.128a1.4,1.4,0,0,0-.8.264Z" transform="translate(-110.893 -88.626)"/><path class="i" d="M155.5,126.2a1.4,1.4,0,0,0-.193.569l-.366,4.267a1.158,1.158,0,0,0,0,.376l3.617-2.631Z" transform="translate(-110.908 -88.615)"/><path class="i" d="M161.865,129.11l-.66.478a1.4,1.4,0,0,1-.823.274,1.229,1.229,0,0,1-.782-.274l-.569-.478-3.82,2.774a1.168,1.168,0,0,0,.9.406h8.128a1.372,1.372,0,0,0,.965-.406Z" transform="translate(-110.904 -88.568)"/><path class="k" d="M155.438,139.963a2.377,2.377,0,0,1-2.4-2.631,2.936,2.936,0,0,1,2.855-2.621H242.55a2.367,2.367,0,0,1,2.4,2.621,2.926,2.926,0,0,1-2.855,2.631Z" transform="translate(-110.939 -88.479)"/><path class="j" d="M155.438,139.963a2.377,2.377,0,0,1-2.4-2.631,2.936,2.936,0,0,1,2.855-2.621H242.55a2.367,2.367,0,0,1,2.4,2.621,2.926,2.926,0,0,1-2.855,2.631Z" transform="translate(-110.939 -88.479)"/><path class="k" d="M154.538,150.293a2.367,2.367,0,0,1-2.4-2.631A2.916,2.916,0,0,1,155.046,145h78.862a2.367,2.367,0,0,1,2.4,2.621,2.936,2.936,0,0,1-2.855,2.631Z" transform="translate(-110.953 -88.314)"/><path class="j" d="M154.538,150.293a2.367,2.367,0,0,1-2.4-2.631A2.916,2.916,0,0,1,155.046,145h78.862a2.367,2.367,0,0,1,2.4,2.621,2.936,2.936,0,0,1-2.855,2.631Z" transform="translate(-110.953 -88.314)"/><path class="k" d="M153.628,160.623a2.367,2.367,0,0,1-2.388-2.631,2.916,2.916,0,0,1,2.845-2.621h83.444a2.367,2.367,0,0,1,2.388,2.621,2.916,2.916,0,0,1-2.855,2.631Z" transform="translate(-110.968 -88.148)"/><path class="j" d="M153.628,160.623a2.367,2.367,0,0,1-2.388-2.631,2.916,2.916,0,0,1,2.845-2.621h83.444a2.367,2.367,0,0,1,2.388,2.621,2.916,2.916,0,0,1-2.855,2.631Z" transform="translate(-110.968 -88.148)"/><path class="k" d="M151.818,181.283a2.367,2.367,0,0,1-2.388-2.621,2.916,2.916,0,0,1,2.855-2.631h93.34a2.367,2.367,0,0,1,2.388,2.631,2.916,2.916,0,0,1-2.845,2.621Z" transform="translate(-110.997 -87.818)"/><path class="j" d="M151.818,181.283a2.367,2.367,0,0,1-2.388-2.621,2.916,2.916,0,0,1,2.855-2.631h93.34a2.367,2.367,0,0,1,2.388,2.631,2.916,2.916,0,0,1-2.845,2.621Z" transform="translate(-110.997 -87.818)"/><path class="k" d="M150.918,191.613a2.367,2.367,0,0,1-2.4-2.621,2.936,2.936,0,0,1,2.855-2.631h53.513a2.367,2.367,0,0,1,2.388,2.631,2.916,2.916,0,0,1-2.855,2.621Z" transform="translate(-111.011 -87.652)"/><path class="j" d="M150.918,191.613a2.367,2.367,0,0,1-2.4-2.621,2.936,2.936,0,0,1,2.855-2.631h53.513a2.367,2.367,0,0,1,2.388,2.631,2.916,2.916,0,0,1-2.855,2.621Z" transform="translate(-111.011 -87.652)"/><path class="i" d="M160.8,166.023a4.44,4.44,0,0,0-4.064-1.361h0a5.375,5.375,0,0,0-4.277,3.759,4.653,4.653,0,0,0,.061,2.885l-.559,1.473a.681.681,0,0,0,.071.61.62.62,0,0,0,.559.244l1.7-.112a4.48,4.48,0,0,0,2.347.65,4.428,4.428,0,0,0,.732-.051,5.4,5.4,0,0,0,4.348-3.942A4.521,4.521,0,0,0,160.8,166.023Zm.213,4.064a4.531,4.531,0,0,1-3.647,3.3,3.83,3.83,0,0,1-2.682-.559l-.091-.071-1.829.132.61-1.626v-.132a3.881,3.881,0,0,1-.081-2.54,4.552,4.552,0,0,1,3.586-3.16h0a3.739,3.739,0,0,1,3.383,1.148A3.779,3.779,0,0,1,161.013,170.087Z" transform="translate(-110.956 -88.001)"/><path class="i" d="M157.851,169.962a1.819,1.819,0,0,0-.356.864,2.743,2.743,0,0,1-1.219-.8,2.672,2.672,0,0,1-.7-1.341,1.666,1.666,0,0,0,.853-.285c.244-.224.122-.772-.284-1.219s-.945-.62-1.189-.4a1.626,1.626,0,0,0-.295,1.514,2.926,2.926,0,0,0,.894,2.388,2.875,2.875,0,0,0,2.347,1.107,1.687,1.687,0,0,0,1.433-.2c.244-.234.122-.782-.284-1.229S158.105,169.738,157.851,169.962Z" transform="translate(-110.914 -87.967)"/><path class="i" d="M252.687,126.541l-.457,5.08H251.01l.366-4.186H250.36l.081-.945Z" transform="translate(-109.381 -88.61)"/><path class="i" d="M256.809,128.9a1.351,1.351,0,0,1,.417,1.158,1.758,1.758,0,0,1-1.077,1.473,2.916,2.916,0,0,1-1.209.234,4.064,4.064,0,0,1-1.016-.142,2.662,2.662,0,0,1-.853-.406l.549-.914a1.941,1.941,0,0,0,.64.345,2.519,2.519,0,0,0,.782.122,1.29,1.29,0,0,0,.721-.183.63.63,0,0,0,.284-.528.488.488,0,0,0-.223-.5,1.778,1.778,0,0,0-.914-.173H253.6l.518-2.885h3.129l-.081.945h-2.134l-.163,1.016h.417a2.327,2.327,0,0,1,1.524.437Z" transform="translate(-109.338 -88.61)"/><path class="i" d="M250.461,169.311a1.29,1.29,0,0,1,.274.965,1.676,1.676,0,0,1-.315.833,1.768,1.768,0,0,1-.762.6,2.865,2.865,0,0,1-1.2.234,4.064,4.064,0,0,1-1.016-.142,2.571,2.571,0,0,1-.853-.406l.538-.914a2.083,2.083,0,0,0,.65.345,2.449,2.449,0,0,0,.772.112,1.351,1.351,0,0,0,.721-.163.64.64,0,0,0,.3-.5c0-.417-.264-.63-.9-.63h-.549l.071-.782,1.158-1.2h-2.184l.081-.955h3.6l-.061.772-1.28,1.321A1.565,1.565,0,0,1,250.461,169.311Z" transform="translate(-109.442 -87.967)"/><path class="i" d="M254.789,169.037a1.3,1.3,0,0,1,.417,1.158,1.8,1.8,0,0,1-.3.853,1.818,1.818,0,0,1-.772.62,2.916,2.916,0,0,1-1.209.234,4.064,4.064,0,0,1-1.016-.142,2.773,2.773,0,0,1-.853-.406l.549-.914a2.083,2.083,0,0,0,.65.345,2.407,2.407,0,0,0,.772.112,1.291,1.291,0,0,0,.721-.173.62.62,0,0,0,.295-.488.488.488,0,0,0-.224-.5,1.727,1.727,0,0,0-.914-.173h-1.311l.518-2.9h3.129l-.081.955h-2.144l-.163,1.016h.417a2.316,2.316,0,0,1,1.524.4Z" transform="translate(-109.37 -87.968)"/><path class="i" d="M196.8,343.234H179.6a6.685,6.685,0,0,1-6.756-7.407l1.5-17.2a8.24,8.24,0,0,1,8.057-7.4h17.191a6.675,6.675,0,0,1,6.756,7.4l-1.5,17.2a8.25,8.25,0,0,1-8.047,7.407Z" transform="translate(-110.622 -85.655)"/><path class="g" d="M194.259,321.849c-.213,2.438-2.449,5.425-4.877,5.425s-4.145-2.987-3.932-5.425a4.9,4.9,0,0,1,4.785-4.4,3.973,3.973,0,0,1,4.023,4.4Z" transform="translate(-110.42 -85.555)"/><path class="g" d="M197.93,335.605h0a7.112,7.112,0,0,0-7.254-6.685h-2.723a8.849,8.849,0,0,0-8.412,6.685h0a.792.792,0,0,0,.772,1.016h16.652a1.016,1.016,0,0,0,.965-1.016Z" transform="translate(-110.515 -85.372)"/><path class="i" d="M239.3,343.234H222.107a6.685,6.685,0,0,1-6.756-7.407l1.5-17.2a8.24,8.24,0,0,1,8.057-7.4H242.1a6.675,6.675,0,0,1,6.756,7.4l-1.5,17.2A8.25,8.25,0,0,1,239.3,343.234Z" transform="translate(-109.942 -85.655)"/><path class="g" d="M241.89,332.214a2.947,2.947,0,0,0,.193-.742l.742-8.534a2.316,2.316,0,0,0-.173-1.138l-7.112,5.151Z" transform="translate(-109.619 -85.485)"/><path class="g" d="M231.04,327.736a1.422,1.422,0,0,0,1.758,0l9.378-6.838a2.4,2.4,0,0,0-1.5-.528H224.415a2.8,2.8,0,0,0-1.605.528Z" transform="translate(-109.822 -85.508)"/><path class="g" d="M222.018,321.8a2.693,2.693,0,0,0-.376,1.138l-.742,8.534a2.225,2.225,0,0,0,0,.742l7.234-5.273Z" transform="translate(-109.853 -85.485)"/><path class="g" d="M234.769,327.61l-1.311.955a2.8,2.8,0,0,1-1.646.549,2.448,2.448,0,0,1-1.565-.549l-1.138-.955-7.63,5.558a2.377,2.377,0,0,0,1.8.8h16.205a2.824,2.824,0,0,0,1.941-.8Z" transform="translate(-109.844 -85.392)"/><path class="k" d="M243.511,320.953a6.949,6.949,0,0,1-7.031-7.7,8.575,8.575,0,0,1,8.382-7.7h1.473a6.939,6.939,0,0,1,7.031,7.7,8.575,8.575,0,0,1-8.382,7.7Z" transform="translate(-109.604 -85.745)"/><path class="g" d="M243.553,310.1l-.528,6.045h-1.4l.427-4.917H240.84l.1-1.128Z" transform="translate(-109.534 -85.673)"/><path class="g" d="M248.409,312.884a1.534,1.534,0,0,1,.488,1.361,1.95,1.95,0,0,1-.366,1.016,2.256,2.256,0,0,1-.9.731,3.353,3.353,0,0,1-1.422.274,4.56,4.56,0,0,1-1.189-.173,2.9,2.9,0,0,1-1.016-.478l.64-1.077a2.376,2.376,0,0,0,.762.406,3.049,3.049,0,0,0,.914.142,1.6,1.6,0,0,0,.843-.2.752.752,0,0,0,.356-.579.589.589,0,0,0-.264-.589,2.083,2.083,0,0,0-1.077-.2H244.63l.61-3.4h3.688l-.1,1.128h-2.52l-.193,1.148h.488A2.753,2.753,0,0,1,248.409,312.884Z" transform="translate(-109.483 -85.672)"/><path class="i" d="M158.868,290.9H141.677a6.675,6.675,0,0,1-6.756-7.407l1.5-17.191a8.24,8.24,0,0,1,8.047-7.407h17.2a6.675,6.675,0,0,1,6.756,7.407l-1.5,17.191a8.24,8.24,0,0,1-8.057,7.407Z" transform="translate(-111.229 -86.492)"/><path class="g" d="M159.178,268.045a8.85,8.85,0,0,0-8.037-2.733h0a10.739,10.739,0,0,0-8.555,7.508,9.418,9.418,0,0,0,.112,5.781l-1.1,2.936a1.26,1.26,0,0,0,.142,1.219,1.229,1.229,0,0,0,1.1.5l3.4-.234a8.809,8.809,0,0,0,4.694,1.321,10.234,10.234,0,0,0,1.463-.112,10.759,10.759,0,0,0,8.687-7.874A8.941,8.941,0,0,0,159.178,268.045Zm.427,8.067a9.022,9.022,0,0,1-7.295,6.6,7.569,7.569,0,0,1-5.354-1.118l-.193-.132-3.647.254,1.219-3.241-.1-.264a7.854,7.854,0,0,1-.173-5.08,9.144,9.144,0,0,1,7.173-6.309h0a7.346,7.346,0,0,1,8.372,9.3Z" transform="translate(-111.123 -86.391)"/><path class="g" d="M153.3,276.014a3.312,3.312,0,0,0-.721,1.717,5.984,5.984,0,0,1-3.841-4.288,3.241,3.241,0,0,0,1.7-.569c.508-.457.244-1.555-.569-2.449s-1.88-1.24-2.377-.782a3.292,3.292,0,0,0-.579,3.048,5.873,5.873,0,0,0,1.788,4.785,5.781,5.781,0,0,0,4.684,2.2,3.4,3.4,0,0,0,2.865-.417c.5-.457.244-1.554-.569-2.449S153.8,275.546,153.3,276.014Z" transform="translate(-111.039 -86.323)"/><path class="k" d="M163.261,266.723a6.939,6.939,0,0,1-7.031-7.7,8.575,8.575,0,0,1,8.372-7.7h1.483a6.949,6.949,0,0,1,7.031,7.7,8.575,8.575,0,0,1-8.382,7.7Z" transform="translate(-110.888 -86.613)"/><path class="g" d="M163.933,258.928a1.5,1.5,0,0,1,.325,1.138,1.91,1.91,0,0,1-.366,1.016,2.144,2.144,0,0,1-.9.711,3.342,3.342,0,0,1-1.412.264,4.613,4.613,0,0,1-1.24-.163,3.048,3.048,0,0,1-1.016-.478l.64-1.077a2.479,2.479,0,0,0,.762.406,3.047,3.047,0,0,0,.914.142,1.565,1.565,0,0,0,.843-.2.721.721,0,0,0,.356-.579c0-.488-.315-.742-1.016-.742h-.64l.081-.925,1.372-1.4h-2.621l.1-1.128h4.237l-.081.9-1.5,1.565A1.768,1.768,0,0,1,163.933,258.928Z" transform="translate(-110.838 -86.54)"/><path class="g" d="M169.07,258.654a1.534,1.534,0,0,1,.488,1.361,1.95,1.95,0,0,1-.366,1.016,2.123,2.123,0,0,1-.9.732,3.312,3.312,0,0,1-1.412.264,4.683,4.683,0,0,1-1.25-.163,3.048,3.048,0,0,1-1.016-.478l.65-1.077a2.479,2.479,0,0,0,.762.406,2.957,2.957,0,0,0,.9.142,1.514,1.514,0,0,0,.853-.213.7.7,0,0,0,.274-.579.569.569,0,0,0-.264-.589,2.032,2.032,0,0,0-1.067-.2h-1.544l.6-3.4h3.688L169.375,257h-2.52l-.2,1.148h.5a2.723,2.723,0,0,1,1.92.508Z" transform="translate(-110.753 -86.54)"/><path class="i" d="M201.378,290.9h-17.2a6.675,6.675,0,0,1-6.756-7.407l1.5-17.191a8.24,8.24,0,0,1,8.047-7.407h17.2a6.675,6.675,0,0,1,6.756,7.407l-1.5,17.191a8.24,8.24,0,0,1-8.047,7.407Z" transform="translate(-110.549 -86.492)"/><path class="g" d="M197.9,265.23h-6a6.909,6.909,0,0,0-6.736,6.187l-.518,6a5.578,5.578,0,0,0,5.639,6.187h6.015a6.9,6.9,0,0,0,6.726-6.187l.528-6a5.588,5.588,0,0,0-5.649-6.187Zm3.5,12.192a5.08,5.08,0,0,1-4.958,4.562h-6.015a4.064,4.064,0,0,1-4.155-4.562l.518-6a5.08,5.08,0,0,1,4.968-4.562h6a4.115,4.115,0,0,1,4.166,4.562Z" transform="translate(-110.434 -86.391)"/><path class="g" d="M194.372,270.14a4.684,4.684,0,0,0-4.562,4.206,3.79,3.79,0,0,0,3.83,4.2,4.684,4.684,0,0,0,4.572-4.2,3.81,3.81,0,0,0-3.84-4.206Zm-.589,6.777a2.327,2.327,0,0,1-2.347-2.57,2.875,2.875,0,0,1,2.794-2.581,2.316,2.316,0,0,1,2.347,2.581,2.865,2.865,0,0,1-2.794,2.57Z" transform="translate(-110.351 -86.312)"/><path class="g" d="M198.823,268.28a1.494,1.494,0,0,0-1.473,1.351,1.219,1.219,0,0,0,1.24,1.351,1.514,1.514,0,0,0,1.473-1.351,1.219,1.219,0,0,0-1.24-1.351Z" transform="translate(-110.23 -86.342)"/><path class="k" d="M205.761,266.723a6.939,6.939,0,0,1-7.031-7.7,8.575,8.575,0,0,1,8.372-7.7h1.483a6.949,6.949,0,0,1,7.031,7.7,8.575,8.575,0,0,1-8.382,7.7Z" transform="translate(-110.208 -86.613)"/><path class="g" d="M209.759,255.92l-.081.914-2.642,5.131h-1.524l2.6-4.9h-2.032l-.091,1.016h-1.24l.183-2.123Z" transform="translate(-110.111 -86.54)"/><path class="i" d="M243.868,290.9H226.677a6.675,6.675,0,0,1-6.756-7.407l1.5-17.191a8.24,8.24,0,0,1,8.047-7.407h17.2a6.675,6.675,0,0,1,6.756,7.407l-1.5,17.191a8.24,8.24,0,0,1-8.057,7.407Z" transform="translate(-109.869 -86.492)"/><path class="g" d="M240.8,273.734h4.47l-.345,3.891h-4.338l-1.148,13.157h-5.08l1.158-13.157H232.82l.335-3.891h2.692l.071-.772a6.95,6.95,0,0,1,2.164-4.735,7.356,7.356,0,0,1,5.131-1.748,9.033,9.033,0,0,1,2.134.244,4.754,4.754,0,0,1,1.636.7l-1.646,3.658a3.251,3.251,0,0,0-2.032-.62c-1.534,0-2.367.843-2.52,2.53Z" transform="translate(-109.662 -86.371)"/><path class="k" d="M248.261,266.723a6.939,6.939,0,0,1-7.031-7.7,8.575,8.575,0,0,1,8.372-7.7h1.483a6.949,6.949,0,0,1,7.031,7.7,8.575,8.575,0,0,1-8.382,7.7Z" transform="translate(-109.528 -86.613)"/><path class="g" d="M249.47,255.92l-.081.914-2.7,5.131h-1.514l2.591-4.9h-2.032l-.081,1.016H244.4l.193-2.123Z" transform="translate(-109.477 -86.54)"/><path class="g" d="M250.626,261.7a2.225,2.225,0,0,1-.823-1.077,3.648,3.648,0,0,1-.183-1.676,4,4,0,0,1,.477-1.676,2.743,2.743,0,0,1,1.016-1.077,2.529,2.529,0,0,1,1.372-.376,2.225,2.225,0,0,1,1.3.376,2.144,2.144,0,0,1,.833,1.077,3.942,3.942,0,0,1,.183,1.676,4.328,4.328,0,0,1-.477,1.676,2.886,2.886,0,0,1-1.016,1.077,2.671,2.671,0,0,1-1.372.376,2.357,2.357,0,0,1-1.311-.376Zm2.327-1.29a2.835,2.835,0,0,0,.437-1.463,2.59,2.59,0,0,0-.183-1.473.884.884,0,0,0-.823-.467,1.077,1.077,0,0,0-.9.467,2.905,2.905,0,0,0-.447,1.473,2.52,2.52,0,0,0,.193,1.463.864.864,0,0,0,.813.478A1.1,1.1,0,0,0,252.953,260.412Z" transform="translate(-109.394 -86.541)"/><path class="i" d="M154.3,343.234H137.107a6.685,6.685,0,0,1-6.756-7.407l1.5-17.2a8.24,8.24,0,0,1,8.057-7.4H157.1a6.675,6.675,0,0,1,6.756,7.4l-1.5,17.2A8.25,8.25,0,0,1,154.3,343.234Z" transform="translate(-111.302 -85.655)"/><path class="g" d="M147.8,318.08c-6.269,0-11.694,4.064-12.131,9.012a7.7,7.7,0,0,0,3.8,7.112,16.357,16.357,0,0,1-2.926,3.891,12.029,12.029,0,0,0,4.867-1.067,12.869,12.869,0,0,0,2.134-1.209,14.292,14.292,0,0,0,2.682.264c6.259,0,11.694-4.064,12.131-9.022S154.06,318.08,147.8,318.08Z" transform="translate(-111.217 -85.545)"/><path class="k" d="M158.511,320.953a6.949,6.949,0,0,1-7.031-7.7,8.575,8.575,0,0,1,8.382-7.7h1.473a6.939,6.939,0,0,1,7.031,7.7,8.575,8.575,0,0,1-8.382,7.7Z" transform="translate(-110.964 -85.745)"/><path class="g" d="M161.812,313.158a1.463,1.463,0,0,1,.325,1.138,2.032,2.032,0,0,1-.356,1.016,2.215,2.215,0,0,1-.9.711,3.332,3.332,0,0,1-1.412.274,4.562,4.562,0,0,1-1.24-.173,2.9,2.9,0,0,1-1.016-.478l.63-1.077a2.439,2.439,0,0,0,.772.406,3.049,3.049,0,0,0,.914.142,1.6,1.6,0,0,0,.843-.2.721.721,0,0,0,.356-.579c0-.488-.315-.742-1.067-.742h-.63l.081-.925,1.361-1.4H157.9l.1-1.128h4.227l-.081.914-1.494,1.554A1.768,1.768,0,0,1,161.812,313.158Z" transform="translate(-110.872 -85.672)"/><path class="l" d="M132.363,384.494H241.075a15.037,15.037,0,0,0,14.691-13.513L278.484,111.19a12.192,12.192,0,0,0-6.462-12.09L129,384.088A13.208,13.208,0,0,0,132.363,384.494Z" transform="translate(-111.323 -89.049)"/></g><g transform="translate(247.075 126.81)"><path class="q" d="M256.9,386.59l-7.661,15.718,6.157,5.019,11.288-17.008Z" transform="translate(-243.087 -121.505)"/><path class="i" d="M258.622,405.553a.223.223,0,0,1-.122-.224.213.213,0,0,1,.163-.193c.163,0,3.84-.9,5.232,0a1.148,1.148,0,0,1,.518.691.833.833,0,0,1-.254.935c-.518.376-1.737.234-2.855-.091a16.616,16.616,0,0,1-2.682-1.118Zm.772-.081c1.615.711,3.9,1.361,4.491.9.081-.061.173-.173.091-.488a.569.569,0,0,0-.325-.417,1.382,1.382,0,0,0-.4-.173,10.517,10.517,0,0,0-3.861.173Z" transform="translate(-242.939 -121.215)"/><path class="i" d="M258.51,405.554a.223.223,0,0,1,0-.224c0-.112,1.016-2.469,2.438-3.048a1.626,1.626,0,0,1,1.29,0c.579.234.671.579.62.833-.112,1.077-2.855,2.388-4.064,2.55a.152.152,0,0,1-.091,0,.244.244,0,0,1-.193-.112Zm3.424-2.946a1.077,1.077,0,0,0-.813,0,5.08,5.08,0,0,0-2.032,2.408c1.311-.335,3.18-1.443,3.312-2.032,0-.061,0-.224-.356-.366h-.132Z" transform="translate(-242.939 -121.256)"/><path class="k" d="M258.318,404.046l-9.855-2.906a.823.823,0,0,0-.955.386l-4.145,7.488a1.382,1.382,0,0,0,.518,1.88l.264.112c3.576,1.016,6.787,1.727,11.176,3.048,5.222,1.544,3.708,1.778,9.815,3.678,3.688,1.138,5.6-2.865,4.064-3.536-6.909-3.048-7.01-5.405-9.012-8.788a3.353,3.353,0,0,0-1.869-1.361Z" transform="translate(-243.184 -121.273)"/><path class="r" d="M251.58,397.431l7.447,4.369,7.62-11.481-9.784-3.729Z" transform="translate(-243.05 -121.505)"/><path class="q" d="M340.07,392.95l8.2,15.433,7.437-3.617-6.868-17.536Z" transform="translate(-241.634 -121.495)"/><path class="i" d="M357.075,404.061a.244.244,0,0,1-.244-.081.213.213,0,0,1,0-.264c.091-.132,2.266-3.221,3.871-3.495a1.127,1.127,0,0,1,.864.173.843.843,0,0,1,.427.864c-.142.62-1.148,1.331-2.2,1.829A16.309,16.309,0,0,1,357.075,404.061Zm.518-.569c1.676-.549,3.82-1.575,3.962-2.316,0-.091,0-.234-.254-.417a.61.61,0,0,0-.528-.1,1.9,1.9,0,0,0-.406.132,10.475,10.475,0,0,0-2.774,2.723Z" transform="translate(-241.366 -121.287)"/><path class="i" d="M357.01,404.139a.224.224,0,0,1-.173-.142c0-.112-.884-2.51-.223-3.912a1.636,1.636,0,0,1,.965-.874c.579-.2.884,0,1.016.213.63.874-.549,3.678-1.361,4.613a.162.162,0,0,1-.081.051.2.2,0,0,1-.142.051Zm.61-4.481a1.189,1.189,0,0,0-.579.579,5.253,5.253,0,0,0,.1,3.139c.762-1.118,1.422-3.19,1.1-3.749,0,0-.132-.173-.508,0l-.112.061Z" transform="translate(-241.373 -121.304)"/><path class="k" d="M355.814,403.256l-9.307,4.359a.833.833,0,0,0-.457.925l1.869,8.362a1.372,1.372,0,0,0,1.636,1.016,1.454,1.454,0,0,0,.274-.091c3.322-1.626,6.218-3.211,10.394-5.161,4.928-2.306,3.952-1.128,9.784-3.759,3.515-1.585,2.3-5.852.721-5.354-7.173,2.316-8.829.6-12.578-.6a3.332,3.332,0,0,0-2.337.3Z" transform="translate(-241.538 -121.245)"/><path class="r" d="M353.867,400.036,349.742,389.5l-4.978.356-4.694,3.058,6.015,11.308Z" transform="translate(-241.634 -121.458)"/><path class="q" d="M329.87,190.517l2.824-6.756,3.332-10.475a3.048,3.048,0,0,1,1.869-1.951l3.922-1.422a3.048,3.048,0,0,1,3.7,1.361l2.3,4.064A3.048,3.048,0,0,1,346.8,179.4l-8.433,5.517-1.128,7.874Z" transform="translate(-241.797 -124.975)"/><path class="i" d="M298.275,243.8H313.9s5.659,20.32-18.288,104.445a10.436,10.436,0,0,1-1.29,2.845l-32.3,49.784-9.144-5.334s9.012-23.785,18.522-41.727c2.215-4.2,4.328-7.59,5.5-11.257.721-2.266,1.219-3.82,1.382-9.52.356-12.863,1.138-35.306,2.449-45.354,0,0-12.6-22.891-7.264-43.851Z" transform="translate(-243.029 -123.79)"/><path class="s" d="M298.275,243.8H313.9s5.659,20.32-18.288,104.445a10.436,10.436,0,0,1-1.29,2.845l-32.3,49.784-9.144-5.334s9.012-23.785,18.522-41.727c2.215-4.2,4.328-7.59,5.5-11.257.721-2.266,1.219-3.82,1.382-9.52.356-12.863,1.138-35.306,2.449-45.354,0,0-12.6-22.891-7.264-43.851Z" transform="translate(-243.029 -123.79)"/><path class="i" d="M308.2,176.348c2.692,1.869,7.793,8.362,14.793,25.1a1.656,1.656,0,0,0,3.109-.132l4.755-15.149,8.27,1.534s-2.936,34.209-13.076,34.473-22.931-30.4-22.931-30.4-1.8-10,1.067-14.62a2.845,2.845,0,0,1,4.013-.8Z" transform="translate(-242.234 -124.877)"/><path class="s" d="M308.2,176.348c2.692,1.869,7.793,8.362,14.793,25.1a1.656,1.656,0,0,0,3.109-.132l4.755-15.149,8.27,1.534s-2.936,34.209-13.076,34.473-22.931-30.4-22.931-30.4-1.8-10,1.067-14.62a2.845,2.845,0,0,1,4.013-.8Z" transform="translate(-242.234 -124.877)"/><path class="i" d="M270.572,243.8h31.252l2.855,14.488,50.109,140.98-9.916,5.334s-21.336-35.306-31.435-59.06c-1.636-3.851-2.408-7.569-3.81-10.282-1.168-2.266-2.449-3.1-6.1-8.128-5.954-8.291-14.1-19.893-20.777-33.65-.945-1.941-1.5-4.064-2.662-5.822a49.133,49.133,0,0,1-3.485-4.7C272.411,276.221,266.386,262.606,270.572,243.8Z" transform="translate(-242.768 -123.79)"/><path class="i" d="M340.07,399.342l13.33-7.122,1.544,4.836-11.826,6.482Z" transform="translate(-241.634 -121.415)"/><path class="j" d="M340.07,399.342l13.33-7.122,1.544,4.836-11.826,6.482Z" transform="translate(-241.634 -121.415)"/><path class="i" d="M252.583,389.52l12.832,7.986-3.424,3.759-11.521-7Z" transform="translate(-243.067 -121.458)"/><path class="j" d="M252.583,389.52l12.832,7.986-3.424,3.759-11.521-7Z" transform="translate(-243.067 -121.458)"/><path class="i" d="M259.156,179.706a6.1,6.1,0,0,0-1.971,6.634c2.784,8.423,9.286,28.58,10.444,36.495.732,5.009-1.92,15.585,0,20.32a9.926,9.926,0,0,0,4.552,4.186c9.825,3.048,41.189,0,41.189,0s2.713-1.412,3.048-2.316c.833-2.57-3.048-10.4-3.048-10.4s.325-19.416,0-25.867c-.274-5.436-1.158-16.927-1.748-24.384A12.07,12.07,0,0,0,303.86,174C294.015,170.237,275.656,166.407,259.156,179.706Z" transform="translate(-242.965 -124.963)"/><path class="j" d="M259.146,179.716a6.1,6.1,0,0,0-1.961,6.624c2.784,8.412,9.286,28.58,10.444,36.495.732,5.009-1.92,15.585,0,20.32a9.927,9.927,0,0,0,4.552,4.186c8.382,2.631,32.441.772,39.329.173a7.508,7.508,0,0,0,4.145-1.636,2.408,2.408,0,0,0,.732-.853c.833-2.57-3.048-10.4-3.048-10.4s.325-19.416,0-25.867c-.274-5.436-1.158-16.927-1.748-24.384a12.06,12.06,0,0,0-7.752-10.363C294.025,170.237,275.656,166.407,259.146,179.716Z" transform="translate(-242.965 -124.963)"/><path class="i" d="M293.947,189.56s-20.269-3.048-23.652-14.935,22.586-10.668,27.564-.884S293.947,189.56,293.947,189.56Z" transform="translate(-242.755 -125.033)"/><path class="s" d="M293.947,189.56s-20.269-3.048-23.652-14.935,22.586-10.668,27.564-.884S293.947,189.56,293.947,189.56Z" transform="translate(-242.755 -125.033)"/><path class="q" d="M292.939,186.116s-13.513-2.316-15.646-10.16,13.777-6.756,17.607,0C297.877,181.24,292.939,186.116,292.939,186.116Z" transform="translate(-242.641 -124.963)"/><path class="q" d="M273.493,245.11l6.655,5.243a44.288,44.288,0,0,1,6.421.142,28.6,28.6,0,0,1,3.739,1.524l-7.3,9.235a30.241,30.241,0,0,1-2.662-1.605,61.425,61.425,0,0,1-4.338-4.42l-6.513-3.668Z" transform="translate(-242.763 -123.769)"/><path class="k" d="M302.173,135.71s3.881,5.395-2.347,5.08S302.173,135.71,302.173,135.71Z" transform="translate(-242.314 -125.519)"/><path class="q" d="M278.07,174.168l.813,2.235c4.166,2.154,8.423,4.135,12.771,5.893,2.256-1.2,1.412-2.489,2.164-3.576l.417-2.51c-3.434-1.758-4.328-5.872-3.983-9.042a23.239,23.239,0,0,1,.478-2.9l-7.112-5.954L278.375,154C279.665,159.751,281.047,169.311,278.07,174.168Z" transform="translate(-242.626 -125.226)"/><path class="s" d="M290.649,164.2a23.239,23.239,0,0,0-.478,2.9c-2.682-.528-6.685-2.916-7.061-5.933a12.315,12.315,0,0,1,.417-2.916Z" transform="translate(-242.545 -125.158)"/><path class="q" d="M278.917,141.541c-1.087,8.555-2.174,13.492,1.3,18.735,5.141,7.884,16.185,6.238,19.751-1.768,3.261-7.183,4.409-19.975-3.15-25.085a11.379,11.379,0,0,0-17.9,8.128Z" transform="translate(-242.629 -125.589)"/><path class="t" d="M291.06,146.527c-.122.7.132,1.331.579,1.422s.914-.376,1.087-1.087-.132-1.321-.579-1.412S291.193,145.846,291.06,146.527Z" transform="translate(-242.418 -125.363)"/><path class="t" d="M299,148.017c-.132.681.132,1.321.579,1.412s.9-.386,1.077-1.087-.122-1.321-.569-1.422S299.092,147.347,299,148.017Z" transform="translate(-242.291 -125.34)"/><path class="u" d="M295.889,147.92a26.254,26.254,0,0,0,1.778,5.669,3.668,3.668,0,0,1-3,0Z" transform="translate(-242.36 -125.324)"/><path class="t" d="M293.577,158.147a5.994,5.994,0,0,1-4.206-2.032.234.234,0,0,1,0-.295.2.2,0,0,1,.274,0h0a5.679,5.679,0,0,0,4.674,1.93.2.2,0,0,1,.213.173h0a.213.213,0,0,1-.193.213Z" transform="translate(-242.446 -125.198)"/><path class="t" d="M289.316,143.706a.284.284,0,0,1-.183-.061.406.406,0,0,1-.1-.559h0a3.962,3.962,0,0,1,3.251-1.7.4.4,0,0,1,.376.427h0a.417.417,0,0,1-.437.376,3.048,3.048,0,0,0-2.581,1.351.366.366,0,0,1-.325.163Z" transform="translate(-242.452 -125.428)"/><path class="t" d="M302.69,145.454a.437.437,0,0,1-.325-.2,3.363,3.363,0,0,0-2.449-1.748.406.406,0,0,1-.376-.437h0a.417.417,0,0,1,.427-.376h0a4.064,4.064,0,0,1,3.048,2.174.4.4,0,0,1-.132.559A.457.457,0,0,1,302.69,145.454Z" transform="translate(-242.282 -125.407)"/><path class="k" d="M277.969,147.981s7.793,3.759,4.755-9.144c0,0,8.768,3.363,12.446-.691,0,0,12.324,1.463,10.658-3.81,0,0,.813-3.261-4.064-2.032,0,0,.295-3.891-4.684-3.414,0,0-1.2-2.753-5.751-1.524,0,0-.467-3.576-6.543-.315,0,0-7.681-.061-6.452,5.08,0,0-10.241.1-6.035,6.37,0,0-3.17,2.743.589,4.684C272.909,143.145,271,150.46,277.969,147.981Z" transform="translate(-242.738 -125.68)"/><path class="q" d="M274.252,148.543a9.2,9.2,0,0,0,3.343,5.222c2.174,1.6,3.81-.335,3.688-3.048-.112-2.449-1.361-6.238-3.759-6.736S273.673,145.922,274.252,148.543Z" transform="translate(-242.689 -125.388)"/><path class="i" d="M258.381,180.156a10.637,10.637,0,0,0-3.312,3.546c-3.231,5.71-11.684,22.413-10.607,39.289,1.341,20.808,29.86,32.512,29.86,32.512l4.247-6.949s-27.91-22.068-15.24-44.785C263.359,203.778,278.315,166.836,258.381,180.156Z" transform="translate(-243.165 -124.854)"/><path class="s" d="M258.381,180.156a10.637,10.637,0,0,0-3.312,3.546c-3.231,5.71-11.684,22.413-10.607,39.289,1.341,20.808,29.86,32.512,29.86,32.512l4.247-6.949s-27.91-22.068-15.24-44.785C263.359,203.778,278.315,166.836,258.381,180.156Z" transform="translate(-243.165 -124.854)"/><path class="i" d="M291.7,188.04l1.27.193-1.331,12.273-1.676.163Z" transform="translate(-242.436 -124.682)"/><path class="i" d="M294.18,187.435l1.016-.935a17.374,17.374,0,0,1,5.141,12.405l-1.392.6S298.183,190.371,294.18,187.435Z" transform="translate(-242.368 -124.706)"/><path class="i" d="M289.222,250.1l-10.3,13.7,4.359,2.489,10.434-14.051Z" transform="translate(-242.612 -123.689)"/><path class="s" d="M289.222,250.1l-10.3,13.7,4.359,2.489,10.434-14.051Z" transform="translate(-242.612 -123.689)"/><path class="r" d="M310.532,234.09a136.022,136.022,0,0,1-29.362,1.656S304.955,241.74,310.532,234.09Z" transform="translate(-242.576 -123.945)"/><path class="i" d="M337.265,183.311h-4.44a.945.945,0,0,1-.843-1.351l8.362-17.14a2.235,2.235,0,0,1,2.032-1.25h4.45a.925.925,0,0,1,.833,1.341l-8.362,17.14a2.215,2.215,0,0,1-2.032,1.26Z" transform="translate(-241.765 -125.073)"/><path class="l" d="M347.6,164.1a.925.925,0,0,0-.843-.549h-4.45a2.235,2.235,0,0,0-2.032,1.25L334,177.672Z" transform="translate(-241.731 -125.074)"/><path class="i" d="M346.795,163.55h-.152a.711.711,0,0,1-.081.274l-8.362,17.14a2.215,2.215,0,0,1-2.032,1.26H331.9a.935.935,0,0,0,.925,1.016h4.44a2.215,2.215,0,0,0,2.032-1.26l8.362-17.14a.925.925,0,0,0-.864-1.29Z" transform="translate(-241.765 -125.074)"/><path class="s" d="M346.795,163.55h-.152a.711.711,0,0,1-.081.274l-8.362,17.14a2.215,2.215,0,0,1-2.032,1.26H331.9a.935.935,0,0,0,.925,1.016h4.44a2.215,2.215,0,0,0,2.032-1.26l8.362-17.14a.925.925,0,0,0-.864-1.29Z" transform="translate(-241.765 -125.074)"/><path class="q" d="M345.013,171.277l-1.311-.782a2.174,2.174,0,0,0-3.292,1.656l-.681,6.99a2.195,2.195,0,0,0,.478,1.6l.64.772a.782.782,0,0,0,1.351-.234l3.15-9.063a.792.792,0,0,0-.335-.935Z" transform="translate(-241.639 -124.967)"/></g></g></svg>