<svg xmlns="http://www.w3.org/2000/svg" viewBox="0 0 459.907 469.239">
  <defs>
    <style>
      .cls-1, .cls-10, .cls-11, .cls-6 {
        fill: #76ff27;
      }

      .cls-13, .cls-2, .cls-3, .cls-8 {
        fill: #fff;
      }

      .cls-2 {
        opacity: 0.8;
      }

      .cls-3 {
        opacity: 0.6;
      }

      .cls-4, .cls-5, .cls-9 {
        fill: none;
      }

      .cls-4, .cls-5 {
        stroke: #76ff27;
      }

      .cls-4, .cls-5, .cls-6 {
        stroke-miterlimit: 10;
      }

      .cls-5 {
        stroke-width: 0.5px;
      }

      .cls-11, .cls-6, .cls-9 {
        stroke: #263238;
      }

      .cls-7 {
        opacity: 0.1;
      }

      .cls-11, .cls-9 {
        stroke-linecap: round;
        stroke-linejoin: round;
        stroke-width: 0.75px;
      }

      .cls-10 {
        opacity: 0.5;
      }

      .cls-12 {
        fill: #263238;
      }

      .cls-13 {
        fill-rule: evenodd;
      }
    </style>
  </defs>
  <g id="Social_tree-bro" data-name="Social tree-bro" transform="translate(-67.759 -64.127)">
    <g id="freepik--background-simple--inject-16" transform="translate(67.759 105.542)">
      <path id="Path_1" data-name="Path 1" class="cls-1" d="M109.18,481.434s25.258.843,74.1-10.093S262.413,444.4,310.4,451.973s90.07,35.351,138.886,31.94,90.925-53.032,74.93-114.484S469.5,306.29,473.7,274.3s44.613-42.927,27.787-101.849S435.819,96.69,408.044,96.69,293.19,156.736,260.726,149.722s-31.147-37.88-97.646-22.728c-42.556,9.7-69.973,48.024-74.866,88.345a109.016,109.016,0,0,0,9.671,59.574c10.6,22.907,31.275,49.008,29.819,75.2-1.686,30.3-56.405,41.253-59.765,83.349S109.18,481.434,109.18,481.434Z" transform="translate(-67.759 -96.69)"/>
      <path id="Path_2" data-name="Path 2" class="cls-2" d="M109.18,481.434s25.258.843,74.1-10.093S262.413,444.4,310.4,451.973s90.07,35.351,138.886,31.94,90.925-53.032,74.93-114.484S469.5,306.29,473.7,274.3s44.613-42.927,27.787-101.849S435.819,96.69,408.044,96.69,293.19,156.736,260.726,149.722s-31.147-37.88-97.646-22.728c-42.556,9.7-69.973,48.024-74.866,88.345a109.016,109.016,0,0,0,9.671,59.574c10.6,22.907,31.275,49.008,29.819,75.2-1.686,30.3-56.405,41.253-59.765,83.349S109.18,481.434,109.18,481.434Z" transform="translate(-67.759 -96.69)"/>
    </g>
    <g id="freepik--Plants--inject-16" transform="translate(130.901 377.118)">
      <path id="Path_3" data-name="Path 3" class="cls-1" d="M326.714,422.074c11.728,13.236,31.722,14.667,31.722,14.667s.971-20.02-10.757-33.217-31.735-14.654-31.735-14.654S314.973,408.851,326.714,422.074Z" transform="translate(-62.015 -287.162)"/>
      <path id="Path_4" data-name="Path 4" class="cls-3" d="M326.714,422.074c11.728,13.236,31.722,14.667,31.722,14.667s.971-20.02-10.757-33.217-31.735-14.654-31.735-14.654S314.973,408.851,326.714,422.074Z" transform="translate(-62.015 -287.162)"/>
      <path id="Path_5" data-name="Path 5" class="cls-1" d="M337.47,390.05c0,30.5,24.159,55.217,24.159,55.217s24.159-24.721,24.159-55.217-24.159-55.23-24.159-55.23S337.47,359.541,337.47,390.05Z" transform="translate(-56.034 -302.165)"/>
      <path id="Path_6" data-name="Path 6" class="cls-3" d="M337.47,390.05c0,30.5,24.159,55.217,24.159,55.217s24.159-24.721,24.159-55.217-24.159-55.23-24.159-55.23S337.47,359.541,337.47,390.05Z" transform="translate(-56.034 -302.165)"/>
      <line id="Line_1" data-name="Line 1" class="cls-4" y1="110.447" transform="translate(305.595 32.655)"/>
      <line id="Line_2" data-name="Line 2" class="cls-4" x1="13.53" y1="11.805" transform="translate(292.065 60.11)"/>
      <line id="Line_3" data-name="Line 3" class="cls-4" y1="24.274" x2="16.749" transform="translate(305.812 65.898)"/>
      <line id="Line_4" data-name="Line 4" class="cls-4" x1="19.969" y1="17.822" transform="translate(285.626 82.864)"/>
      <line id="Line_5" data-name="Line 5" class="cls-4" y1="17.605" x2="19.751" transform="translate(305.812 97.25)"/>
      <line id="Line_6" data-name="Line 6" class="cls-4" x1="15.459" y1="12.239" transform="translate(290.353 114.855)"/>
      <line id="Line_7" data-name="Line 7" class="cls-4" x1="42.492" y1="47.909" transform="translate(253.929 101.67)"/>
      <line id="Line_8" data-name="Line 8" class="cls-4" x1="10.4" y2="0.077" transform="translate(258.631 118.7)"/>
      <line id="Line_9" data-name="Line 9" class="cls-4" x1="2.07" y1="16.966" transform="translate(274.077 109.565)"/>
      <line id="Line_10" data-name="Line 10" class="cls-4" x1="15.523" y1="0.051" transform="translate(264.585 131.131)"/>
      <line id="Line_11" data-name="Line 11" class="cls-4" y1="15.229" x2="1.789" transform="translate(285.652 122.009)"/>
      <line id="Line_12" data-name="Line 12" class="cls-4" x1="11.409" y2="0.639" transform="translate(278.945 142.553)"/>
      <path id="Path_7" data-name="Path 7" class="cls-1" d="M375.212,402.87C362.9,415.557,362.96,435.6,362.96,435.6s20.045-.524,32.361-13.21,12.252-32.732,12.252-32.732S387.541,390.094,375.212,402.87Z" transform="translate(-48.959 -286.942)"/>
      <path id="Path_8" data-name="Path 8" class="cls-3" d="M375.212,402.87C362.9,415.557,362.96,435.6,362.96,435.6s20.045-.524,32.361-13.21,12.252-32.732,12.252-32.732S387.541,390.094,375.212,402.87Z" transform="translate(-48.959 -286.942)"/>
      <line id="Line_13" data-name="Line 13" class="cls-4" y1="45.942" x2="44.613" transform="translate(314.001 102.654)"/>
      <line id="Line_14" data-name="Line 14" class="cls-4" x1="0.856" y1="10.374" transform="translate(341.904 108.607)"/>
      <line id="Line_15" data-name="Line 15" class="cls-4" y1="3.322" x2="16.762" transform="translate(335.478 123.338)"/>
      <line id="Line_16" data-name="Line 16" class="cls-4" x1="1.111" y1="15.484" transform="translate(330.022 115.468)"/>
      <line id="Line_17" data-name="Line 17" class="cls-4" x2="15.331" y2="0.652" transform="translate(325.5 136.931)"/>
      <line id="Line_18" data-name="Line 18" class="cls-4" x1="1.482" y1="11.345" transform="translate(319.073 130.684)"/>
      <path id="Path_9" data-name="Path 9" class="cls-1" d="M154.822,383.211c9.952,11.217,26.893,12.431,26.893,12.431s.818-16.966-9.122-28.183-26.829-12.418-26.829-12.418S144.883,372.006,154.822,383.211Z" transform="translate(-109.254 -296.552)"/>
      <path id="Path_10" data-name="Path 10" class="cls-3" d="M154.822,383.211c9.952,11.217,26.893,12.431,26.893,12.431s.818-16.966-9.122-28.183-26.829-12.418-26.829-12.418S144.883,372.006,154.822,383.211Z" transform="translate(-109.254 -296.552)"/>
      <path id="Path_11" data-name="Path 11" class="cls-1" d="M164,356.058c0,25.845,20.441,46.8,20.441,46.8s20.441-20.952,20.441-46.8-20.441-46.8-20.441-46.8S164,330.212,164,356.058Z" transform="translate(-104.186 -309.26)"/>
      <path id="Path_12" data-name="Path 12" class="cls-3" d="M164,356.058c0,25.845,20.441,46.8,20.441,46.8s20.441-20.952,20.441-46.8-20.441-46.8-20.441-46.8S164,330.212,164,356.058Z" transform="translate(-104.186 -309.26)"/>
      <line id="Line_19" data-name="Line 19" class="cls-4" y1="93.596" transform="translate(80.229)"/>
      <line id="Line_20" data-name="Line 20" class="cls-4" x1="11.46" y1="10.003" transform="translate(68.77 23.265)"/>
      <line id="Line_21" data-name="Line 21" class="cls-4" y1="20.569" x2="14.194" transform="translate(80.408 28.171)"/>
      <line id="Line_22" data-name="Line 22" class="cls-4" x1="16.915" y1="15.101" transform="translate(63.314 42.556)"/>
      <line id="Line_23" data-name="Line 23" class="cls-4" y1="14.922" x2="16.749" transform="translate(80.408 54.744)"/>
      <line id="Line_24" data-name="Line 24" class="cls-4" x1="13.095" y1="10.374" transform="translate(67.313 69.667)"/>
      <line id="Line_25" data-name="Line 25" class="cls-4" x1="36.015" y1="40.602" transform="translate(36.447 58.488)"/>
      <line id="Line_26" data-name="Line 26" class="cls-4" x1="8.815" y2="0.077" transform="translate(40.433 72.912)"/>
      <line id="Line_27" data-name="Line 27" class="cls-4" x1="1.75" y1="14.386" transform="translate(53.528 65.169)"/>
      <line id="Line_28" data-name="Line 28" class="cls-4" x1="13.146" y1="0.038" transform="translate(45.479 83.452)"/>
      <line id="Line_29" data-name="Line 29" class="cls-4" y1="12.916" x2="1.52" transform="translate(63.327 75.722)"/>
      <line id="Line_30" data-name="Line 30" class="cls-4" x1="9.671" y2="0.537" transform="translate(57.642 93.136)"/>
      <path id="Path_13" data-name="Path 13" class="cls-1" d="M195.947,366.882c-10.438,10.757-10.387,27.749-10.387,27.749s16.979-.447,27.417-11.2,10.387-27.736,10.387-27.736S206.385,356.086,195.947,366.882Z" transform="translate(-98.202 -296.372)"/>
      <path id="Path_14" data-name="Path 14" class="cls-3" d="M195.947,366.882c-10.438,10.757-10.387,27.749-10.387,27.749s16.979-.447,27.417-11.2,10.387-27.736,10.387-27.736S206.385,356.086,195.947,366.882Z" transform="translate(-98.202 -296.372)"/>
      <line id="Line_31" data-name="Line 31" class="cls-4" y1="38.941" x2="37.804" transform="translate(87.358 59.318)"/>
      <line id="Line_32" data-name="Line 32" class="cls-4" x1="0.728" y1="8.79" transform="translate(110.994 64.365)"/>
      <line id="Line_33" data-name="Line 33" class="cls-4" y1="2.823" x2="14.207" transform="translate(105.551 76.847)"/>
      <line id="Line_34" data-name="Line 34" class="cls-4" x1="0.933" y1="13.121" transform="translate(100.939 70.178)"/>
      <line id="Line_35" data-name="Line 35" class="cls-4" x2="12.98" y2="0.549" transform="translate(97.106 88.37)"/>
      <line id="Line_36" data-name="Line 36" class="cls-4" x1="1.265" y1="9.607" transform="translate(91.651 83.081)"/>
      <path id="Path_15" data-name="Path 15" class="cls-1" d="M122.916,429.166c6.235,7.027,16.851,7.793,16.851,7.793s.511-10.63-5.724-17.656-16.851-7.793-16.851-7.793S116.681,422.139,122.916,429.166Z" transform="translate(-117.182 -280.877)"/>
      <path id="Path_16" data-name="Path 16" class="cls-3" d="M122.916,429.166c6.235,7.027,16.851,7.793,16.851,7.793s.511-10.63-5.724-17.656-16.851-7.793-16.851-7.793S116.681,422.139,122.916,429.166Z" transform="translate(-117.182 -280.877)"/>
      <path id="Path_17" data-name="Path 17" class="cls-1" d="M128.63,412.151c0,16.2,12.776,29.384,12.776,29.384s12.776-13.134,12.776-29.384-12.776-29.32-12.776-29.32S128.63,395.951,128.63,412.151Z" transform="translate(-114.004 -288.838)"/>
      <path id="Path_18" data-name="Path 18" class="cls-3" d="M128.63,412.151c0,16.2,12.776,29.384,12.776,29.384s12.776-13.134,12.776-29.384-12.776-29.32-12.776-29.32S128.63,395.951,128.63,412.151Z" transform="translate(-114.004 -288.838)"/>
      <line id="Line_37" data-name="Line 37" class="cls-5" y1="58.654" transform="translate(27.453 93.992)"/>
      <line id="Line_38" data-name="Line 38" class="cls-5" x1="7.18" y1="6.26" transform="translate(20.273 108.569)"/>
      <line id="Line_39" data-name="Line 39" class="cls-5" y1="12.878" x2="8.892" transform="translate(27.568 111.648)"/>
      <line id="Line_40" data-name="Line 40" class="cls-5" x1="10.604" y1="9.454" transform="translate(16.849 120.655)"/>
      <line id="Line_41" data-name="Line 41" class="cls-5" y1="9.339" x2="10.489" transform="translate(27.568 128.295)"/>
      <line id="Line_42" data-name="Line 42" class="cls-5" x1="8.215" y1="6.503" transform="translate(19.353 137.634)"/>
      <line id="Line_43" data-name="Line 43" class="cls-5" x1="22.575" y1="25.449" transform="translate(0.01 130.633)"/>
      <line id="Line_44" data-name="Line 44" class="cls-5" x1="5.532" y2="0.038" transform="translate(2.501 139.678)"/>
      <line id="Line_45" data-name="Line 45" class="cls-5" x1="1.099" y1="9.02" transform="translate(10.716 134.823)"/>
      <line id="Line_46" data-name="Line 46" class="cls-5" x1="8.24" y1="0.026" transform="translate(5.67 146.283)"/>
      <line id="Line_47" data-name="Line 47" class="cls-5" y1="8.087" x2="0.945" transform="translate(16.861 141.441)"/>
      <line id="Line_48" data-name="Line 48" class="cls-5" x1="6.069" y2="0.332" transform="translate(13.297 152.352)"/>
      <path id="Path_19" data-name="Path 19" class="cls-1" d="M148.676,418.934c-6.541,6.746-6.516,17.388-6.516,17.388s10.642-.281,17.183-7.014,6.516-17.388,6.516-17.388S155.217,412.2,148.676,418.934Z" transform="translate(-110.249 -280.764)"/>
      <path id="Path_20" data-name="Path 20" class="cls-3" d="M148.676,418.934c-6.541,6.746-6.516,17.388-6.516,17.388s10.642-.281,17.183-7.014,6.516-17.388,6.516-17.388S155.217,412.2,148.676,418.934Z" transform="translate(-110.249 -280.764)"/>
      <line id="Line_49" data-name="Line 49" class="cls-5" y1="24.402" x2="23.699" transform="translate(31.911 131.157)"/>
      <line id="Line_50" data-name="Line 50" class="cls-5" x1="0.46" y1="5.506" transform="translate(46.731 134.325)"/>
      <line id="Line_51" data-name="Line 51" class="cls-5" y1="1.763" x2="8.905" transform="translate(43.32 142.144)"/>
      <line id="Line_52" data-name="Line 52" class="cls-5" x1="0.6" y1="8.215" transform="translate(40.42 137.966)"/>
      <line id="Line_53" data-name="Line 53" class="cls-5" x2="8.151" y2="0.345" transform="translate(38.018 149.362)"/>
      <line id="Line_54" data-name="Line 54" class="cls-5" x1="0.792" y1="6.017" transform="translate(34.607 146.053)"/>
      <path id="Path_21" data-name="Path 21" class="cls-1" d="M287.246,387.686c6.222,7.027,16.839,7.793,16.839,7.793s.524-10.629-5.711-17.656-16.851-7.793-16.851-7.793S281.036,380.66,287.246,387.686Z" transform="translate(-71.567 -292.391)"/>
      <path id="Path_22" data-name="Path 22" class="cls-3" d="M287.246,387.686c6.222,7.027,16.839,7.793,16.839,7.793s.524-10.629-5.711-17.656-16.851-7.793-16.851-7.793S281.036,380.66,287.246,387.686Z" transform="translate(-71.567 -292.391)"/>
      <path id="Path_23" data-name="Path 23" class="cls-1" d="M293,370.671c0,16.2,12.776,29.384,12.776,29.384s12.776-13.134,12.776-29.384-12.776-29.321-12.776-29.321S293,354.484,293,370.671Z" transform="translate(-68.378 -300.352)"/>
      <path id="Path_24" data-name="Path 24" class="cls-3" d="M293,370.671c0,16.2,12.776,29.384,12.776,29.384s12.776-13.134,12.776-29.384-12.776-29.321-12.776-29.321S293,354.484,293,370.671Z" transform="translate(-68.378 -300.352)"/>
      <line id="Line_55" data-name="Line 55" class="cls-5" y1="58.654" transform="translate(237.423 40.998)"/>
      <line id="Line_56" data-name="Line 56" class="cls-5" x1="7.193" y1="6.273" transform="translate(230.23 55.575)"/>
      <line id="Line_57" data-name="Line 57" class="cls-5" y1="12.878" x2="8.892" transform="translate(237.538 58.654)"/>
      <line id="Line_58" data-name="Line 58" class="cls-5" x1="10.604" y1="9.467" transform="translate(226.819 67.661)"/>
      <line id="Line_59" data-name="Line 59" class="cls-5" y1="9.352" x2="10.489" transform="translate(237.538 75.301)"/>
      <line id="Line_60" data-name="Line 60" class="cls-5" x1="8.215" y1="6.49" transform="translate(229.323 84.653)"/>
      <line id="Line_61" data-name="Line 61" class="cls-5" x1="22.562" y1="25.449" transform="translate(209.981 77.639)"/>
      <line id="Line_62" data-name="Line 62" class="cls-5" x1="5.532" y2="0.051" transform="translate(212.472 86.684)"/>
      <line id="Line_63" data-name="Line 63" class="cls-5" x1="1.099" y1="9.007" transform="translate(220.687 81.842)"/>
      <line id="Line_64" data-name="Line 64" class="cls-5" x1="8.24" y1="0.026" transform="translate(215.64 93.289)"/>
      <line id="Line_65" data-name="Line 65" class="cls-5" y1="8.087" x2="0.945" transform="translate(226.832 88.447)"/>
      <line id="Line_66" data-name="Line 66" class="cls-5" x1="6.056" y2="0.332" transform="translate(223.268 99.358)"/>
      <path id="Path_25" data-name="Path 25" class="cls-1" d="M313.026,377.454c-6.541,6.746-6.516,17.388-6.516,17.388s10.642-.281,17.183-7.014,6.5-17.388,6.5-17.388S319.567,370.721,313.026,377.454Z" transform="translate(-64.628 -292.278)"/>
      <path id="Path_26" data-name="Path 26" class="cls-3" d="M313.026,377.454c-6.541,6.746-6.516,17.388-6.516,17.388s10.642-.281,17.183-7.014,6.5-17.388,6.5-17.388S319.567,370.721,313.026,377.454Z" transform="translate(-64.628 -292.278)"/>
      <line id="Line_67" data-name="Line 67" class="cls-5" y1="24.402" x2="23.686" transform="translate(241.882 78.162)"/>
      <line id="Line_68" data-name="Line 68" class="cls-5" x1="0.447" y1="5.506" transform="translate(256.702 81.331)"/>
      <line id="Line_69" data-name="Line 69" class="cls-5" y1="1.763" x2="8.905" transform="translate(253.291 89.15)"/>
      <line id="Line_70" data-name="Line 70" class="cls-5" x1="0.588" y1="8.228" transform="translate(250.391 84.972)"/>
      <line id="Line_71" data-name="Line 71" class="cls-5" x2="8.138" y2="0.345" transform="translate(247.989 96.368)"/>
      <line id="Line_72" data-name="Line 72" class="cls-5" x1="0.792" y1="6.017" transform="translate(244.578 93.059)"/>
    </g>
    <g id="freepik--Tree--inject-16" transform="translate(108.03 64.8)">
      <path id="Path_27" data-name="Path 27" class="cls-6" d="M480.165,249.27c6.758-.664,11.715-6.554,11.715-6.554s-6-4.816-12.776-4.152a12.558,12.558,0,0,0-2.427.473,12.3,12.3,0,0,0,1.814-6.388,12.929,12.929,0,0,0-3.833.92c2.1-18.64-4.523-37.561-19.777-53.658a14.268,14.268,0,0,0,1.827.217c7.052.307,13.006-5.034,13.006-5.034s-5.11-5.4-11.792-6.069A24.824,24.824,0,0,0,462.2,166c9.084-8.087,10.042-21.847,10.042-21.847s-13.772-.639-22.856,7.448a25.664,25.664,0,0,0-3.028,3.232,22.1,22.1,0,0,0-4.114-11.179,20.656,20.656,0,0,0-2.185,2.172c-9.186-29.972-36.845-50.477-73.64-53.812a18.743,18.743,0,0,0,1.865-3.59s-5.877-1.942-11.038.243a20.443,20.443,0,0,0,1.942-3.922c3.437-9.518-1.278-19.943-1.278-19.943s-10.323,4.983-13.76,14.488a21.581,21.581,0,0,0-.933,3.564,18.282,18.282,0,0,0-7.436-6.541,18.959,18.959,0,0,0-1.112,4.51,93.085,93.085,0,0,0-106.039,5.4,19.278,19.278,0,0,0-1.852-8.1s-5.442,2.99-7.346,8.24a20.94,20.94,0,0,0-1.546-4.088c-4.625-8.943-15.484-12.635-15.484-12.635s-3.4,10.949,1.278,19.943a20.032,20.032,0,0,0,1.967,3.1,18.4,18.4,0,0,0-9.85.984,17.2,17.2,0,0,0,1.405,2.4c-32.642,5.813-56.507,25.4-64.735,52.547a22.843,22.843,0,0,0-3.411-2.3s-3.207,6.707-1.418,13.185a24.274,24.274,0,0,0-4.369-2.9c-10.808-5.57-23.993-1.508-23.993-1.508s4.357,13.082,15.178,18.64a24.541,24.541,0,0,0,4.114,1.661,22.026,22.026,0,0,0-8.943,7.857,22.831,22.831,0,0,0,9.544,2.67c-28.388,32.336-23.75,74,13.351,102.59a70.337,70.337,0,0,0,.256,7.4,23.061,23.061,0,0,0-9.186,1.022s2.67,6.937,8.624,10.055a25.551,25.551,0,0,0-5.11,1.214c-11.5,4.063-17.528,16.43-17.528,16.43s12.508,5.787,23.967,1.725a24.091,24.091,0,0,0,4.024-1.853,16.609,16.609,0,0,0-.894,3.705q-.011.211,0,.422a23.7,23.7,0,0,0,.537,7.78,23.264,23.264,0,0,0,7.947-4.6h.217c.2.294.422.575.639.856a20.258,20.258,0,0,0-2.1,2.21c-6.311,7.908-5.174,19.3-5.174,19.3s11.281-1.418,17.669-9.339l.256-.358c1.7,1.508,3.36,2.734,5.213,4.1a21.531,21.531,0,0,0,1.776,1.418c16.327,11.5,38.085,17.554,62.959,16.289,38.4,34.111,93.468,33,130.02-2.619,22.792.243,42.671-5.57,57.913-15.829a12.277,12.277,0,0,0,4.369,4.983,11.882,11.882,0,0,0,1.354-7.295,13.554,13.554,0,0,0,2.312,1.814c5.775,3.564,13.287,1.865,13.287,1.865s-1.865-7.461-7.665-11.026a14.17,14.17,0,0,0-1.278-.69q.8-.843,1.571-1.686a13.224,13.224,0,0,0,2.836-2.721l-.332-.2c10.962-13.593,16.7-31.058,15.42-50.733,11.5-9.671,19.419-20.556,24.006-31.939a9.441,9.441,0,0,0,2.67,3.616,11.613,11.613,0,0,0,7.512,2.006,11.869,11.869,0,0,0-3.334-6.618,14.056,14.056,0,0,0,2.887.051Z" transform="translate(-99.28 -64.8)"/>
      <path id="Path_28" data-name="Path 28" class="cls-7" d="M480.165,249.27c6.758-.664,11.715-6.554,11.715-6.554s-6-4.816-12.776-4.152a12.558,12.558,0,0,0-2.427.473,12.3,12.3,0,0,0,1.814-6.388,12.929,12.929,0,0,0-3.833.92c2.1-18.64-4.523-37.561-19.777-53.658a14.268,14.268,0,0,0,1.827.217c7.052.307,13.006-5.034,13.006-5.034s-5.11-5.4-11.792-6.069A24.824,24.824,0,0,0,462.2,166c9.084-8.087,10.042-21.847,10.042-21.847s-13.772-.639-22.856,7.448a25.664,25.664,0,0,0-3.028,3.232,22.1,22.1,0,0,0-4.114-11.179,20.656,20.656,0,0,0-2.185,2.172c-9.186-29.972-36.845-50.477-73.64-53.812a18.743,18.743,0,0,0,1.865-3.59s-5.877-1.942-11.038.243a20.443,20.443,0,0,0,1.942-3.922c3.437-9.518-1.278-19.943-1.278-19.943s-10.323,4.983-13.76,14.488a21.581,21.581,0,0,0-.933,3.564,18.282,18.282,0,0,0-7.436-6.541,18.959,18.959,0,0,0-1.112,4.51,93.085,93.085,0,0,0-106.039,5.4,19.278,19.278,0,0,0-1.852-8.1s-5.442,2.99-7.346,8.24a20.94,20.94,0,0,0-1.546-4.088c-4.625-8.943-15.484-12.635-15.484-12.635s-3.4,10.949,1.278,19.943a20.032,20.032,0,0,0,1.967,3.1,18.4,18.4,0,0,0-9.85.984,17.2,17.2,0,0,0,1.405,2.4c-32.642,5.813-56.507,25.4-64.735,52.547a22.843,22.843,0,0,0-3.411-2.3s-3.207,6.707-1.418,13.185a24.274,24.274,0,0,0-4.369-2.9c-10.808-5.57-23.993-1.508-23.993-1.508s4.357,13.082,15.178,18.64a24.541,24.541,0,0,0,4.114,1.661,22.026,22.026,0,0,0-8.943,7.857,22.831,22.831,0,0,0,9.544,2.67c-28.388,32.336-23.75,74,13.351,102.59a70.337,70.337,0,0,0,.256,7.4,23.061,23.061,0,0,0-9.186,1.022s2.67,6.937,8.624,10.055a25.551,25.551,0,0,0-5.11,1.214c-11.5,4.063-17.528,16.43-17.528,16.43s12.508,5.787,23.967,1.725a24.091,24.091,0,0,0,4.024-1.853,15.332,15.332,0,0,0-.741,2.721,18.892,18.892,0,0,0-.294,2.811,21.722,21.722,0,0,0,0,2.555,12.382,12.382,0,0,0,.243,2.057,11.29,11.29,0,0,0,.256,1.278.684.684,0,0,0,.089.409,23.265,23.265,0,0,0,7.947-4.6h.217c.2.294.422.575.639.856a20.264,20.264,0,0,0-2.1,2.21c-6.311,7.908-5.174,19.3-5.174,19.3s11.371-1.341,17.758-9.262l.256-.358c1.7,1.508,3.13,2.555,4.97,3.935,1.035.754,1.533,1.278,2.019,1.584,16.327,11.5,38.085,17.554,62.959,16.289,38.4,34.111,93.468,33,130.02-2.619,22.792.243,42.671-5.57,57.913-15.829a12.277,12.277,0,0,0,4.369,4.983,11.882,11.882,0,0,0,1.354-7.295,13.554,13.554,0,0,0,2.312,1.814c5.775,3.564,13.287,1.865,13.287,1.865s-1.865-7.461-7.665-11.026a14.17,14.17,0,0,0-1.278-.69q.8-.843,1.571-1.686a13.224,13.224,0,0,0,2.836-2.721l-.332-.2c10.962-13.593,16.7-31.058,15.42-50.733,11.5-9.671,19.419-20.556,24.006-31.939a9.441,9.441,0,0,0,2.67,3.616,11.613,11.613,0,0,0,7.512,2.006,11.869,11.869,0,0,0-3.334-6.618,14.056,14.056,0,0,0,2.887.051Z" transform="translate(-99.28 -64.8)"/>
      <path id="Path_29" data-name="Path 29" class="cls-8" d="M364.144,485.374c-20.135-3.219-47.922-17.324-47.922-43.438s-4.024-176.638,0-186.706,12.891-6.388,21.719-3.22a21.911,21.911,0,0,1,10.221,8.151,3.424,3.424,0,0,0,5.276.511,3.309,3.309,0,0,0-.958-5.174c-3.628-1.789-8.56-4.829-9.3-8.317-1.278-5.634.4-5.238,2.811-6.848a83.157,83.157,0,0,0,7.4-6.643,3.424,3.424,0,1,0-4.983-4.625c-2.9,3.909-9.441,11.026-17.707,9.262-11.281-2.415-18.934-11.677-15.331-30.662,2.555-13.121,12.967-27.4,19.164-34.929a4.152,4.152,0,0,0-1.393-6.695,4.216,4.216,0,0,0-5.506,1.942c-3.641,7.244-13.466,25.1-21.5,24.785-7.065-.281-15.331-4.919-19.611-7.665a2.453,2.453,0,0,0-3.526.856,2.376,2.376,0,0,0,1,3.181c8.419,4.42,17.388,13.568,18.512,17.72,1.214,4.433-1.2,11.677-9.25,26.574s-30.662,22.549-41.879,6.043c-8.943-13.134-11.319-42.058-10.029-55.1a4.42,4.42,0,0,0-3.973-4.919,4.318,4.318,0,0,0-4.6,4.369c.153,9.8,4.727,30.662.882,41.56-4.829,13.7-20.531,20.531-30.2,13.287-6.8-5.11-5.417-18.193-4-25.552a2.76,2.76,0,0,0-3.309-3.475,2.823,2.823,0,0,0-2.312,2.785c0,4.817-.549,16.954-5.672,20.147-4.216,2.632-8.253-.575-10.54-3.117a2.67,2.67,0,0,0-3.641-.345,2.632,2.632,0,0,0-.179,3.948c1.674,1.6,4.433,4.2,7.78,7.333,1.2,1.7,2.823,4.663,1.75,7.091s-6.643,3.654-9.952,4.127a2.134,2.134,0,0,0-1.738,2.7v.1a2.159,2.159,0,0,0,3.117,1.278c4.459-2.338,14.948-2.555,17.273-2.479,11.8.754,23.354,8.215,29.627,18.091s5.954,23.444,6.656,34.776c1.61,26.165,2.1,146.641-4.753,156.708s-31.94,23.559-31.94,23.559" transform="translate(-79.217 -36.802)"/>
      <path id="Path_30" data-name="Path 30" class="cls-9" d="M364.144,485.374c-20.135-3.219-47.922-17.324-47.922-43.438s-4.024-176.638,0-186.706,12.891-6.388,21.719-3.22a21.911,21.911,0,0,1,10.221,8.151,3.424,3.424,0,0,0,5.276.511,3.309,3.309,0,0,0-.958-5.174c-3.628-1.789-8.56-4.829-9.3-8.317-1.278-5.634.4-5.238,2.811-6.848a83.157,83.157,0,0,0,7.4-6.643,3.424,3.424,0,1,0-4.983-4.625c-2.9,3.909-9.441,11.026-17.707,9.262-11.281-2.415-18.934-11.677-15.331-30.662,2.555-13.121,12.967-27.4,19.164-34.929a4.152,4.152,0,0,0-1.393-6.695,4.216,4.216,0,0,0-5.506,1.942c-3.641,7.244-13.466,25.1-21.5,24.785-7.065-.281-15.331-4.919-19.611-7.665a2.453,2.453,0,0,0-3.526.856,2.376,2.376,0,0,0,1,3.181c8.419,4.42,17.388,13.568,18.512,17.72,1.214,4.433-1.2,11.677-9.25,26.574s-30.662,22.549-41.879,6.043c-8.943-13.134-11.319-42.058-10.029-55.1a4.42,4.42,0,0,0-3.973-4.919,4.318,4.318,0,0,0-4.6,4.369c.153,9.8,4.727,30.662.882,41.56-4.829,13.7-20.531,20.531-30.2,13.287-6.8-5.11-5.417-18.193-4-25.552a2.76,2.76,0,0,0-3.309-3.475,2.823,2.823,0,0,0-2.312,2.785c0,4.817-.549,16.954-5.672,20.147-4.216,2.632-8.253-.575-10.54-3.117a2.67,2.67,0,0,0-3.641-.345,2.632,2.632,0,0,0-.179,3.948c1.674,1.6,4.433,4.2,7.78,7.333,1.2,1.7,2.823,4.663,1.75,7.091s-6.643,3.654-9.952,4.127a2.134,2.134,0,0,0-1.738,2.7v.1a2.159,2.159,0,0,0,3.117,1.278c4.459-2.338,14.948-2.555,17.273-2.479,11.8.754,23.354,8.215,29.627,18.091s5.954,23.444,6.656,34.776c1.61,26.165,2.1,146.641-4.753,156.708s-31.94,23.559-31.94,23.559" transform="translate(-79.217 -36.802)"/>
      <path id="Path_31" data-name="Path 31" class="cls-8" d="M364.144,485.374c-20.135-3.219-47.922-17.324-47.922-43.438s-4.024-176.638,0-186.706,12.891-6.388,21.719-3.22a21.911,21.911,0,0,1,10.221,8.151,3.424,3.424,0,0,0,5.276.511,3.309,3.309,0,0,0-.958-5.174c-3.628-1.789-8.56-4.829-9.3-8.317-1.278-5.634.4-5.238,2.811-6.848a83.157,83.157,0,0,0,7.4-6.643,3.424,3.424,0,1,0-4.983-4.625c-2.9,3.909-9.441,11.026-17.707,9.262-11.281-2.415-18.934-11.677-15.331-30.662,2.555-13.121,12.967-27.4,19.164-34.929a4.152,4.152,0,0,0-1.393-6.695,4.216,4.216,0,0,0-5.506,1.942c-3.641,7.244-13.466,25.1-21.5,24.785-7.065-.281-15.331-4.919-19.611-7.665a2.453,2.453,0,0,0-3.526.856,2.376,2.376,0,0,0,1,3.181c8.419,4.42,17.388,13.568,18.512,17.72,1.214,4.433-1.2,11.677-9.25,26.574s-30.662,22.549-41.879,6.043c-8.943-13.134-11.319-42.058-10.029-55.1a4.42,4.42,0,0,0-3.973-4.919,4.318,4.318,0,0,0-4.6,4.369c.153,9.8,4.727,30.662.882,41.56-4.829,13.7-20.531,20.531-30.2,13.287-6.8-5.11-5.417-18.193-4-25.552a2.76,2.76,0,0,0-3.309-3.475,2.823,2.823,0,0,0-2.312,2.785c0,4.817-.549,16.954-5.672,20.147-4.216,2.632-8.253-.575-10.54-3.117a2.67,2.67,0,0,0-3.641-.345,2.632,2.632,0,0,0-.179,3.948c1.674,1.6,4.433,4.2,7.78,7.333,1.2,1.7,2.823,4.663,1.75,7.091s-6.643,3.654-9.952,4.127a2.134,2.134,0,0,0-1.738,2.7v.1a2.159,2.159,0,0,0,3.117,1.278c4.459-2.338,14.948-2.555,17.273-2.479,11.8.754,23.354,8.215,29.627,18.091s5.954,23.444,6.656,34.776c1.61,26.165,2.1,146.641-4.753,156.708s-31.94,23.559-31.94,23.559" transform="translate(-79.217 -36.802)"/>
      <g id="Group_1" data-name="Group 1" transform="translate(118.099 207.926)">
        <path id="Path_32" data-name="Path 32" class="cls-10" d="M335.891,468.221a67.413,67.413,0,0,1-10.221-3.833s-2.083-1.1-5.213-3.1c-9.467-4.714-18.116-11.664-22.83-20.94-.319-.485-.626-.958-.92-1.444l-.141-.843a34.495,34.495,0,0,1-2.657-13.363c0-2.632,0-6.528-.115-11.383-.473-6.516-.754-13.555-.562-20.186,0-1.9.077-4.65.1-8.036-.652-36.833-1.546-88.511-1.086-119.939-.115-7.959-.179-12.84-.179-12.84s.179-.652.549-1.648c.281-6.682.7-11.192,1.278-12.674,4.024-10.067,12.891-6.388,21.719-3.22a21.91,21.91,0,0,1,10.221,8.151,3.513,3.513,0,0,0,4.535,1.1c-1.993-1.686-4.561-3.935-8.215-6.771-10.425-8.113-22.013-13.9-31.863-5.787s-17.388,28.388-17.388,40.55V377.474s1.737,8.688-4.05,5.213,2.312-29.55-4.638-41.713-5.787,6.963-4.51,19.713,0,43.438-2.325,46.351-4.05-15.063-5.213-9.262,1.163,30.125,1.163,34.188,2.312,6.95,8.113,8.113,5.8,10.425,8.688,17.963c1.955,5.11,6.26,9.863,8.521,10.527h.882c.511-.23.715-.984.447-2.4-1.15-6.388-12.852-13.185-7-20.505s16.276.792,17.439,2.555,19.739,12.035,22.319,14.13,6.605,1.1,3.041,6.03Z" transform="translate(-175.029 -227.55)"/>
        <path id="Path_33" data-name="Path 33" class="cls-10" d="M224.184,305.8s4.51,41.01,6.311,33.8-1.354-72.107,3.156-63.1.894,93.736.894,101.4,3.156-.447,3.156-14.424.46-60.838,2.261-43.706-.46,83.822-.46,94.183-3.156,23-7.665,24.785-4.957-1.354-9.02-1.354-20.722,13.977-24.785,16.225-10.361,6.311-2.708-1.8,23.891-13.07,25.245-26.586,3.156-93.263,3.156-93.263Z" transform="translate(-191.719 -214.198)"/>
      </g>
      <path id="Path_34" data-name="Path 34" class="cls-9" d="M364.144,485.374c-20.135-3.219-47.922-17.324-47.922-43.438s-4.024-176.638,0-186.706,12.891-6.388,21.719-3.22a21.911,21.911,0,0,1,10.221,8.151,3.424,3.424,0,0,0,5.276.511,3.309,3.309,0,0,0-.958-5.174c-3.628-1.789-8.56-4.829-9.3-8.317-1.278-5.634.4-5.238,2.811-6.848a83.157,83.157,0,0,0,7.4-6.643,3.424,3.424,0,1,0-4.983-4.625c-2.9,3.909-9.441,11.026-17.707,9.262-11.281-2.415-18.934-11.677-15.331-30.662,2.555-13.121,12.967-27.4,19.164-34.929a4.152,4.152,0,0,0-1.393-6.695,4.216,4.216,0,0,0-5.506,1.942c-3.641,7.244-13.466,25.1-21.5,24.785-7.065-.281-15.331-4.919-19.611-7.665a2.453,2.453,0,0,0-3.526.856,2.376,2.376,0,0,0,1,3.181c8.419,4.42,17.388,13.568,18.512,17.72,1.214,4.433-1.2,11.677-9.25,26.574s-30.662,22.549-41.879,6.043c-8.943-13.134-11.319-42.058-10.029-55.1a4.42,4.42,0,0,0-3.973-4.919,4.318,4.318,0,0,0-4.6,4.369c.153,9.8,4.727,30.662.882,41.56-4.829,13.7-20.531,20.531-30.2,13.287-6.8-5.11-5.417-18.193-4-25.552a2.76,2.76,0,0,0-3.309-3.475,2.823,2.823,0,0,0-2.312,2.785c0,4.817-.549,16.954-5.672,20.147-4.216,2.632-8.253-.575-10.54-3.117a2.67,2.67,0,0,0-3.641-.345,2.632,2.632,0,0,0-.179,3.948c1.674,1.6,4.433,4.2,7.78,7.333,1.2,1.7,2.823,4.663,1.75,7.091s-6.643,3.654-9.952,4.127a2.134,2.134,0,0,0-1.738,2.7v.1a2.159,2.159,0,0,0,3.117,1.278c4.459-2.338,14.948-2.555,17.273-2.479,11.8.754,23.354,8.215,29.627,18.091s5.954,23.444,6.656,34.776c1.61,26.165,2.1,146.641-4.753,156.708s-31.94,23.559-31.94,23.559" transform="translate(-79.217 -36.802)"/>
      <path id="Path_35" data-name="Path 35" class="cls-10" d="M288.723,236.623c-10.055,10.476-27.762,13.875-37.331-.141-8.943-13.134-11.319-42.058-10.029-55.1a4.42,4.42,0,0,0-3.973-4.919,4.318,4.318,0,0,0-4.6,4.369c.153,9.8,4.727,30.662.882,41.56-4.829,13.7-20.531,20.531-30.2,13.287-6.8-5.11-5.417-18.193-4-25.552a2.76,2.76,0,0,0-3.309-3.475,2.823,2.823,0,0,0-2.312,2.785c0,4.817-.549,16.954-5.672,20.147-4.216,2.632-8.253-.575-10.54-3.117a2.67,2.67,0,0,0-3.641-.345,2.632,2.632,0,0,0-.179,3.948c1.674,1.6,4.433,4.2,7.78,7.333,1.2,1.7,2.823,4.663,1.75,7.091s-6.643,3.654-9.952,4.127a2.134,2.134,0,0,0-1.738,2.7v.1a2.159,2.159,0,0,0,3.117,1.278c4.459-2.338,14.948-2.555,17.273-2.479a17.048,17.048,0,0,1,2.121.217c-3.181-3.743-10.042-12.929-.345-12.929,12.163,0,27.813,12.163,34.763,9.85S239.6,232.867,242.5,237.5s5.787,17.375,19.7,19.7C274.823,259.339,285.529,248.581,288.723,236.623Z" transform="translate(-79.212 -33.807)"/>
      <path id="Path_36" data-name="Path 36" class="cls-10" d="M259.834,189.106c8.419,4.42,17.388,13.568,18.512,17.72.958,3.513-.371,8.79-4.944,18.218.1,13.926,1.482-3.7,9.262-18.154a43.641,43.641,0,0,1,5.915-8.138,38.045,38.045,0,0,0-1.278,4.076c-4.05,16.813-4.05,26.663,1.738,33.038s13.325,6.95,20.288,5.787c2.7-.447,5.57-3,8.317-6.081a14.054,14.054,0,0,1-11.1,2.67c-11.281-2.415-18.934-11.677-15.331-30.662,1.278-6.388,4.357-13.108,7.959-19.164h0a131.143,131.143,0,0,1,9.863-14.143l.089-.115c.422-.524.83-1.035,1.278-1.508a5.113,5.113,0,0,0,.575-.869c.064-.115.1-.23.153-.345a5.115,5.115,0,0,0,.2-.549,3.285,3.285,0,0,0,.1-.485.916.916,0,0,1,.064-.409,4.313,4.313,0,0,0,0-.575,2.269,2.269,0,0,0,0-.294,5.8,5.8,0,0,0-.153-.639v-.166a3.551,3.551,0,0,0-.319-.664l-.064-.089a3.042,3.042,0,0,0-.511-.639h0a4.305,4.305,0,0,0-1.341-.945,4.216,4.216,0,0,0-5.506,1.942c-3.641,7.244-13.466,25.1-21.5,24.785-7.065-.281-15.331-4.919-19.611-7.665a2.453,2.453,0,0,0-3.526.856,2.376,2.376,0,0,0,.869,3.207Z" transform="translate(-55.038 -36.818)"/>
      <path id="Path_37" data-name="Path 37" class="cls-10" d="M260.33,398.435s-3.756-7.206-14.143-.869-11.5,15.012-18.755,17.324-11.83-.294-13.274,5.762-2.887,8.368-1.737,9.237.869-6.388,4.906-8.074,11.255-2.019,16.736-6.388S251.962,396.711,260.33,398.435Z" transform="translate(-67.99 26.846)"/>
      <path id="Path_38" data-name="Path 38" class="cls-9" d="M204.44,237.56a30.24,30.24,0,0,1,14.181,17.631" transform="translate(-70.089 -16.845)"/>
      <path id="Path_39" data-name="Path 39" class="cls-9" d="M216.31,253.59a88.784,88.784,0,0,1,1.022,8.828" transform="translate(-66.795 -12.395)"/>
      <path id="Path_40" data-name="Path 40" class="cls-9" d="M218.4,270.48s2.875,83.63.613,115.276" transform="translate(-66.214 -7.707)"/>
      <path id="Path_41" data-name="Path 41" class="cls-9" d="M219.194,364.09s-1.022,20.761-1.444,24.044" transform="translate(-66.395 18.277)"/>
      <line id="Line_73" data-name="Line 73" class="cls-9" x2="0.422" y2="15.408" transform="translate(160.809 280.238)"/>
      <path id="Path_42" data-name="Path 42" class="cls-9" d="M225.64,300.23s1.022,57.747.2,76.859" transform="translate(-64.205 0.551)"/>
      <line id="Line_74" data-name="Line 74" class="cls-9" x2="0.626" y2="34.111" transform="translate(168.206 352.779)"/>
      <line id="Line_75" data-name="Line 75" class="cls-9" x2="0.204" y2="8.01" transform="translate(169.241 390.391)"/>
      <path id="Path_43" data-name="Path 43" class="cls-9" d="M276.267,196s1.278,2.261.83,7.193a33.907,33.907,0,0,1-2.887,10.067" transform="translate(-50.723 -28.381)"/>
      <path id="Path_44" data-name="Path 44" class="cls-9" d="M274.8,211.92s-4.931,9.659-6.388,11.307" transform="translate(-52.333 -23.962)"/>
      <path id="Path_45" data-name="Path 45" class="cls-9" d="M219.5,223.67a19.291,19.291,0,0,1-17.669,4.523" transform="translate(-70.814 -20.701)"/>
      <path id="Path_46" data-name="Path 46" class="cls-9" d="M230.984,370.69v38.225s-1.648,5.34-12.124,9.237a12.776,12.776,0,0,0-7.436,4.727c-3.207,4.088-4.676,7.6-8.764,10.821" transform="translate(-70.584 20.109)"/>
      <line id="Line_76" data-name="Line 76" class="cls-9" x1="1.763" y1="92.101" transform="translate(166.865 256.743)"/>
      <path id="Path_47" data-name="Path 47" class="cls-9" d="M222.8,418.341s2.632.575,9.352-4.97,14.334-15.791,23.98-15.791,14.322,5.851,14.322,5.851" transform="translate(-64.993 27.574)"/>
      <path id="Path_48" data-name="Path 48" class="cls-9" d="M261,403.76a22.358,22.358,0,0,1,2.044,7.014" transform="translate(-54.389 29.289)"/>
      <path id="Path_49" data-name="Path 49" class="cls-9" d="M273.35,415.854s-9.94-9.646-4.676-16.966,16.953.882,23.1,6.733" transform="translate(-52.686 27.134)"/>
      <path id="Path_50" data-name="Path 50" class="cls-9" d="M289.85,405.82s.294,2.044,12.278,7.014c0,0,5.557,2.632,2.057,7.308a64.572,64.572,0,0,1-8.777,9.071" transform="translate(-46.381 29.861)"/>
      <path id="Path_51" data-name="Path 51" class="cls-9" d="M222.588,414.28a9.9,9.9,0,0,0-5.557,4.982c-1.75,3.833-1.75,4.97-1.75,4.97" transform="translate(-67.08 32.209)"/>
      <path id="Path_52" data-name="Path 52" class="cls-9" d="M323.545,422.562s-8.483-4.382-14.053-4.382-9.352,8.177-9.352,8.177" transform="translate(-43.525 33.292)"/>
      <line id="Line_77" data-name="Line 77" class="cls-9" y2="108.543" transform="translate(227.87 274.616)"/>
      <line id="Line_78" data-name="Line 78" class="cls-9" x1="0.37" y1="54.451" transform="translate(232.034 348.741)"/>
      <path id="Path_53" data-name="Path 53" class="cls-9" d="M277.676,370s-.37,10.591,0,18.154,7.193,12.112,7.193,12.112" transform="translate(-49.806 19.918)"/>
      <line id="Line_79" data-name="Line 79" class="cls-9" y2="37.816" transform="translate(221.06 267.053)"/>
      <path id="Path_54" data-name="Path 54" class="cls-9" d="M236.5,230.985s8.317,6.81,18.908,6.056,18.525-10.591,18.525-10.591" transform="translate(-61.19 -19.929)"/>
      <path id="Path_55" data-name="Path 55" class="cls-9" d="M227.078,290.184l-.69-27.225A31.773,31.773,0,0,0,220,242.16" transform="translate(-65.77 -15.568)"/>
      <path id="Path_56" data-name="Path 56" class="cls-9" d="M228.548,405.192s-1.137-4.535-8.7-1.137-21.182,15.51-24.2,18.908" transform="translate(-72.529 29.02)"/>
      <path id="Path_57" data-name="Path 57" class="cls-11" d="M205.62,174.216s19.585,17.068,42.16-2.006" transform="translate(-69.762 -34.985)"/>
      <path id="Path_58" data-name="Path 58" class="cls-11" d="M183.21,200.156s8.547,10.553,19.585-2.006" transform="translate(-75.983 -27.784)"/>
      <path id="Path_59" data-name="Path 59" class="cls-11" d="M178.541,211.12s5.021,13.057-11.051,11.5" transform="translate(-80.346 -24.184)"/>
      <path id="Path_60" data-name="Path 60" class="cls-11" d="M168.28,230.38s10.042,2.555,6.017,12.06" transform="translate(-80.127 -18.838)"/>
      <path id="Path_61" data-name="Path 61" class="cls-11" d="M248.86,182.56s0,5.021,10.042,5.021,7.538-11.051,7.538-11.051" transform="translate(-57.759 -33.786)"/>
      <path id="Path_62" data-name="Path 62" class="cls-11" d="M287.782,162s-1.508,11.051,11.051,14.564,20.084-8.547,20.084-8.547" transform="translate(-46.971 -37.819)"/>
      <path id="Path_63" data-name="Path 63" class="cls-11" d="M311.74,208.76s-6.528,5.532-1.508,12.06,11.038,4.012,11.038,4.012" transform="translate(-41.25 -24.839)"/>
      <path id="Path_64" data-name="Path 64" class="cls-11" d="M325.589,236.458s-8-7.333-14.564,2.555,5.532,17.081,5.532,17.081" transform="translate(-41.046 -17.877)"/>
      <path id="Path_65" data-name="Path 65" class="cls-7" d="M205.62,174.216s19.585,17.068,42.16-2.006" transform="translate(-69.762 -34.985)"/>
      <path id="Path_66" data-name="Path 66" class="cls-7" d="M183.21,200.156s8.547,10.553,19.585-2.006" transform="translate(-75.983 -27.784)"/>
      <path id="Path_67" data-name="Path 67" class="cls-7" d="M178.541,211.12s5.021,13.057-11.051,11.5" transform="translate(-80.346 -24.184)"/>
      <path id="Path_68" data-name="Path 68" class="cls-7" d="M168.28,230.38s10.042,2.555,6.017,12.06" transform="translate(-80.127 -18.838)"/>
      <path id="Path_69" data-name="Path 69" class="cls-7" d="M248.86,182.56s0,5.021,10.042,5.021,7.538-11.051,7.538-11.051" transform="translate(-57.759 -33.786)"/>
      <path id="Path_70" data-name="Path 70" class="cls-7" d="M287.782,162s-1.508,11.051,11.051,14.564,20.084-8.547,20.084-8.547" transform="translate(-46.971 -37.819)"/>
      <path id="Path_71" data-name="Path 71" class="cls-7" d="M311.74,208.76s-6.528,5.532-1.508,12.06,11.038,4.012,11.038,4.012" transform="translate(-41.25 -24.839)"/>
      <path id="Path_72" data-name="Path 72" class="cls-7" d="M325.589,236.458s-8-7.333-14.564,2.555,5.532,17.081,5.532,17.081" transform="translate(-41.046 -17.877)"/>
      <path id="Path_73" data-name="Path 73" class="cls-12" d="M252.072,171.8h0a25.552,25.552,0,0,1-25.552-25.552h0A25.552,25.552,0,0,1,252.072,120.7h0a25.552,25.552,0,0,1,25.552,25.552h0A25.552,25.552,0,0,1,252.072,171.8Z" transform="translate(-63.96 -49.283)"/>
      <path id="Path_74" data-name="Path 74" class="cls-13" d="M264.167,143.087a13.785,13.785,0,0,0-27.545-.256c0,.2,0,.4,0,.6a13.721,13.721,0,0,0,1.916,7.078l-2.479,7.333,7.665-2.427a13.785,13.785,0,0,0,20.441-11.971A3.123,3.123,0,0,0,264.167,143.087ZM250.394,154.93a11.5,11.5,0,0,1-6.388-1.9l-4.459,1.418,1.444-4.267a11.5,11.5,0,0,1-2.2-6.746,10.616,10.616,0,0,1,0-1.111,11.6,11.6,0,0,1,23.086.217v.894a11.5,11.5,0,0,1-11.485,11.5Z" transform="translate(-61.312 -46.77)"/>
      <path id="Path_75" data-name="Path 75" class="cls-13" d="M255.046,144.576c-.345-.166-1.993-.984-2.312-1.086s-.524-.166-.754.166a15.158,15.158,0,0,1-1.073,1.278.563.563,0,0,1-.741.089,9.058,9.058,0,0,1-2.708-1.661,10.081,10.081,0,0,1-1.878-2.325.485.485,0,0,1,.141-.677c.166-.153.345-.4.511-.588l.128-.166a2.757,2.757,0,0,0,.217-.4.626.626,0,0,0,0-.588c-.089-.166-.767-1.814-1.048-2.491s-.562-.549-.767-.549h-.639a1.278,1.278,0,0,0-.907.422,3.756,3.756,0,0,0-1.175,2.8,4.216,4.216,0,0,0,.166,1.137,7.282,7.282,0,0,0,1.214,2.325,13.849,13.849,0,0,0,5.762,5.11c3.437,1.278,3.437.882,4.063.83a3.373,3.373,0,0,0,2.274-1.6,2.9,2.9,0,0,0,.2-1.6A1.878,1.878,0,0,0,255.046,144.576Z" transform="translate(-59.653 -45.155)"/>
      <path id="Path_76" data-name="Path 76" class="cls-12" d="M353.242,256.1h0a25.552,25.552,0,0,1-25.552-25.552h0A25.552,25.552,0,0,1,353.242,205h0a25.552,25.552,0,0,1,25.552,25.552h0A25.552,25.552,0,0,1,353.242,256.1Z" transform="translate(-35.878 -25.883)"/>
      <path id="Path_77" data-name="Path 77" class="cls-8" d="M366.45,219.763a4.011,4.011,0,0,0-2.823-2.836c-2.491-.677-12.469-.677-12.469-.677s-9.978,0-12.469.677a3.986,3.986,0,0,0-2.811,2.836,44.46,44.46,0,0,0,0,15.459,3.986,3.986,0,0,0,2.811,2.836c2.491.677,12.469.677,12.469.677s9.978,0,12.469-.677a4.012,4.012,0,0,0,2.823-2.836,45.292,45.292,0,0,0,0-15.459Z" transform="translate(-33.793 -22.76)"/>
      <path id="Path_78" data-name="Path 78" class="cls-12" d="M345.14,230.77v-9.48l8.343,4.74Z" transform="translate(-31.034 -21.361)"/>
      <path id="Path_79" data-name="Path 79" class="cls-12" d="M146.182,250.9h0a25.552,25.552,0,0,1-25.552-25.552h0A25.552,25.552,0,0,1,146.182,199.8h0a25.552,25.552,0,0,1,25.552,25.552h0A25.552,25.552,0,0,1,146.182,250.9Z" transform="translate(-93.354 -27.326)"/>
      <path id="Path_80" data-name="Path 80" class="cls-8" d="M138.165,238.6h6.222V223h4.357l.46-5.225h-4.816V214.8c0-1.278.256-1.725,1.444-1.725H149.2V207.66h-4.318c-4.638,0-6.72,2.044-6.72,5.954v4.165H134.92v5.289h3.245Z" transform="translate(-89.387 -25.145)"/>
      <path id="Path_81" data-name="Path 81" class="cls-12" d="M348.912,194.8h0a25.552,25.552,0,0,1-25.552-25.552h0A25.552,25.552,0,0,1,348.912,143.7h0a25.552,25.552,0,0,1,25.552,25.552h0A25.552,25.552,0,0,1,348.912,194.8Z" transform="translate(-37.079 -42.899)"/>
      <path id="Path_82" data-name="Path 82" class="cls-8" d="M346.408,155.215c3.743,0,4.19,0,5.672.089a7.589,7.589,0,0,1,2.555.473,4.714,4.714,0,0,1,2.657,2.67,7.832,7.832,0,0,1,.485,2.555c.064,1.482.077,1.916.077,5.672s0,4.19-.077,5.672a7.664,7.664,0,0,1-.485,2.555,4.281,4.281,0,0,1-1.048,1.623,4.4,4.4,0,0,1-1.61,1.048,7.833,7.833,0,0,1-2.555.485c-1.482,0-1.929.077-5.672.077s-4.19,0-5.672-.077a7.832,7.832,0,0,1-2.555-.485,4.394,4.394,0,0,1-1.61-1.048,4.28,4.28,0,0,1-1.048-1.623,7.665,7.665,0,0,1-.485-2.555c-.064-1.482-.089-1.929-.089-5.672s0-4.19.089-5.672a7.829,7.829,0,0,1,.485-2.555,4.714,4.714,0,0,1,2.657-2.67,7.589,7.589,0,0,1,2.555-.473c1.482-.077,1.929-.089,5.672-.089m0-2.555c-3.833,0-4.293,0-5.787.089a10.221,10.221,0,0,0-3.411.652,7.244,7.244,0,0,0-4.1,4.1,10.219,10.219,0,0,0-.652,3.411c-.064,1.495-.077,1.967-.077,5.787s0,4.28.077,5.787a10.221,10.221,0,0,0,.652,3.4,6.925,6.925,0,0,0,1.622,2.491,6.848,6.848,0,0,0,2.479,1.61,9.966,9.966,0,0,0,3.411.652c1.495.077,1.98.089,5.787.089s4.293,0,5.787-.089a9.811,9.811,0,0,0,3.4-.652,6.784,6.784,0,0,0,2.491-1.61,6.924,6.924,0,0,0,1.622-2.491,10.6,10.6,0,0,0,.652-3.4c.064-1.508.077-1.98.077-5.787s0-4.293-.077-5.787a10.617,10.617,0,0,0-.652-3.411,7.218,7.218,0,0,0-4.114-4.1,10.132,10.132,0,0,0-3.4-.652c-1.495-.064-1.98-.089-5.787-.089" transform="translate(-34.576 -40.412)"/>
      <path id="Path_83" data-name="Path 83" class="cls-8" d="M344.926,158a7.193,7.193,0,1,0,5.1,2.107,7.206,7.206,0,0,0-5.1-2.107m0,11.882a4.676,4.676,0,1,1,4.676-4.676,4.676,4.676,0,0,1-4.676,4.676" transform="translate(-33.093 -38.929)"/>
      <path id="Path_84" data-name="Path 84" class="cls-8" d="M351.273,158.164a1.686,1.686,0,1,1-1.686-1.674,1.686,1.686,0,0,1,1.686,1.674" transform="translate(-30.268 -39.349)"/>
      <path id="Path_85" data-name="Path 85" class="cls-12" d="M323.322,303.013h0a25.552,25.552,0,0,1-25.552-25.552h0a25.552,25.552,0,0,1,25.552-25.552h0a25.552,25.552,0,0,1,25.552,25.552h0A25.552,25.552,0,0,1,323.322,303.013Z" transform="translate(-44.183 -12.862)"/>
      <path id="Path_86" data-name="Path 86" class="cls-8" d="M317.087,283.333a4.906,4.906,0,0,0,3.283-2.3,5.225,5.225,0,0,0,.8-2.862,4.7,4.7,0,0,0-.7-2.632,3.961,3.961,0,0,0-2.07-1.571,4.292,4.292,0,0,0,1.367-1.022,4.024,4.024,0,0,0,.83-2.645,4.56,4.56,0,0,0-.818-2.734,5.506,5.506,0,0,0-4.65-1.9H306.47v17.886h8.074A12.192,12.192,0,0,0,317.087,283.333Zm-7.039-14.564h3.9a6.988,6.988,0,0,1,2.121.281,1.61,1.61,0,0,1,.958,1.661,1.686,1.686,0,0,1-.728,1.571,3.6,3.6,0,0,1-1.891.447h-4.357Zm0,11.7v-4.778h4.408a4.485,4.485,0,0,1,1.8.307,1.916,1.916,0,0,1,1.137,1.916,2.261,2.261,0,0,1-1.175,2.236,4.167,4.167,0,0,1-1.814.319Z" transform="translate(-41.768 -9.049)"/>
      <path id="Path_87" data-name="Path 87" class="cls-8" d="M320.8,281.47a7.27,7.27,0,0,0,4.663,1.584,6.388,6.388,0,0,0,4.983-1.942,4.369,4.369,0,0,0,1.278-2.389h-3.539a2.721,2.721,0,0,1-2.645,1.52,3.488,3.488,0,0,1-1.9-.5,3.181,3.181,0,0,1-1.393-2.8H331.9a18.023,18.023,0,0,0-.115-2.632,6.451,6.451,0,0,0-1.06-2.734,5.455,5.455,0,0,0-2.287-1.968,7.665,7.665,0,0,0-3.117-.613,6.388,6.388,0,0,0-4.74,1.827,7.206,7.206,0,0,0-1.827,5.289A6.388,6.388,0,0,0,320.8,281.47Zm2.478-8.815a2.785,2.785,0,0,1,2.07-.754,3.054,3.054,0,0,1,2.057.715,2.9,2.9,0,0,1,.92,2.1H322.36a3.693,3.693,0,0,1,.92-2.057Z" transform="translate(-38.366 -8.119)"/>
      <rect id="Rectangle_3" data-name="Rectangle 3" class="cls-8" width="7.793" height="1.814" transform="translate(282.857 257.637)"/>
      <path id="Path_88" data-name="Path 88" class="cls-12" d="M168.042,194.763h0a25.552,25.552,0,0,1-25.552-25.552h0a25.552,25.552,0,0,1,25.552-25.552h0a25.552,25.552,0,0,1,25.552,25.552h0A25.552,25.552,0,0,1,168.042,194.763Z" transform="translate(-87.286 -42.91)"/>
      <path id="Path_89" data-name="Path 89" class="cls-8" d="M151.82,174.608a15.919,15.919,0,0,0,24.5-14.13,11.4,11.4,0,0,0,2.8-2.9,11.331,11.331,0,0,1-3.22.882,5.6,5.6,0,0,0,2.466-3.092,11.5,11.5,0,0,1-3.552,1.354,5.609,5.609,0,0,0-9.544,5.11,15.842,15.842,0,0,1-11.5-5.839,5.583,5.583,0,0,0,1.725,7.461,5.622,5.622,0,0,1-2.555-.69,5.6,5.6,0,0,0,4.484,5.557,5.788,5.788,0,0,1-2.555.089,5.6,5.6,0,0,0,5.225,3.833A11.23,11.23,0,0,1,151.82,174.608Z" transform="translate(-84.696 -39.772)"/>
      <path id="Path_90" data-name="Path 90" class="cls-12" d="M192.812,143.1h0a25.552,25.552,0,0,1-25.552-25.552h0A25.552,25.552,0,0,1,192.812,92h0a25.552,25.552,0,0,1,25.552,25.552h0A25.552,25.552,0,0,1,192.812,143.1Z" transform="translate(-80.41 -57.25)"/>
      <rect id="Rectangle_4" data-name="Rectangle 4" class="cls-8" width="5.302" height="17.107" transform="translate(100.073 53.978)"/>
      <path id="Path_91" data-name="Path 91" class="cls-8" d="M180.35,106.677a3.168,3.168,0,1,0-3.13-3.156A3.168,3.168,0,0,0,180.35,106.677Z" transform="translate(-77.645 -54.935)"/>
      <path id="Path_92" data-name="Path 92" class="cls-8" d="M189.492,115.281c0-2.4,1.1-3.833,3.22-3.833s2.887,1.38,2.887,3.833v8.943h5.276V113.48c0-4.587-2.555-6.81-6.235-6.81a5.941,5.941,0,0,0-5.11,2.836v-2.312h-5.11v17.12h5.11Z" transform="translate(-75.647 -53.178)"/>
      <path id="Path_93" data-name="Path 93" class="cls-12" d="M311.352,144.363h0A25.552,25.552,0,0,1,285.8,118.812h0A25.552,25.552,0,0,1,311.352,93.26h0A25.552,25.552,0,0,1,336.9,118.812h0a25.552,25.552,0,0,1-25.552,25.552Z" transform="translate(-47.505 -56.9)"/>
      <path id="Path_94" data-name="Path 94" class="cls-8" d="M294.736,116.622a14.258,14.258,0,0,0,14.258,14.258,14.058,14.058,0,0,0,2.673-.256,8.317,8.317,0,0,0,11.368-11.5,14.464,14.464,0,0,0,.217-2.555,14.245,14.245,0,0,0-14.258-14.245,13.592,13.592,0,0,0-2.619.243,8.317,8.317,0,0,0-11.409,11.5,15.029,15.029,0,0,0-.23,2.555ZM309.147,106.5c4.6.268,7.295,2.287,7.551,4.178a1.929,1.929,0,0,1-2.108,2.185c-2.082,0-2.3-2.772-5.877-2.772-1.61,0-2.977.677-2.977,2.134,0,3.041,11.5,1.278,11.5,7.985,0,3.833-3.092,6.388-7.665,6.388-4.063,0-8.151-1.84-8.125-5.008a1.776,1.776,0,0,1,1.674-1.827c2.389,0,2.364,3.552,6.171,3.552,2.67,0,3.59-1.456,3.59-2.479,0-3.667-11.5-1.418-11.5-8.317C301.264,108.79,304.3,106.21,309.147,106.5Z" transform="translate(-45.314 -54.659)"/>
      <path id="Path_95" data-name="Path 95" class="cls-12" d="M176.552,298.1h0A25.552,25.552,0,0,1,151,272.552h0A25.552,25.552,0,0,1,176.552,247h0A25.552,25.552,0,0,1,202.1,272.552h0A25.552,25.552,0,0,1,176.552,298.1Z" transform="translate(-84.923 -14.225)"/>
      <path id="Path_96" data-name="Path 96" class="cls-13" d="M189.124,277.478h0a3.833,3.833,0,0,0-.958-.345h0a8.343,8.343,0,0,1-3.948-2.875,8.942,8.942,0,0,1-1.341-2.363h0a1.15,1.15,0,0,1,0-1.009h0a2.772,2.772,0,0,1,1.354-.869h0a5.316,5.316,0,0,0,1.827-.945h0a.984.984,0,0,0,.268-.345.371.371,0,0,0,0-.128.613.613,0,0,0,0-.473h0a1.52,1.52,0,0,0-.639-.613h0a1.278,1.278,0,0,0-1.1-.089h0a8.462,8.462,0,0,1-.971.281h0a2.147,2.147,0,0,1-1.111,0,1.075,1.075,0,0,0,0-.243h0v-2.07h0a19.328,19.328,0,0,0-.077-3.322h0a7.436,7.436,0,0,0-3.117-4.612,7.742,7.742,0,0,0-3.833-1.354h0a12.6,12.6,0,0,0-1.38-.064,8.5,8.5,0,0,0-5.2,1.661,8.279,8.279,0,0,0-2.555,3.309h0a9.378,9.378,0,0,0-.409,4.05h0a20.792,20.792,0,0,1,.064,2.657,3.526,3.526,0,0,1-1.278,0h0a8.229,8.229,0,0,1-1.009-.281h0a1.277,1.277,0,0,0-.984.217h0a1.009,1.009,0,0,0-.537.8v.077h0a.958.958,0,0,0,.332.549l.345.256h0a9.419,9.419,0,0,0,2.057.882h0a1.5,1.5,0,0,1,.92.882,2.466,2.466,0,0,1-.37,1.571h0a9.6,9.6,0,0,1-3.1,3.564,7.666,7.666,0,0,1-2.287,1.048h0a1.277,1.277,0,0,0-.818.473v.089a.69.69,0,0,0,.128.639,1.2,1.2,0,0,0,.345.268h0a7.665,7.665,0,0,0,2.121.728h0a7.8,7.8,0,0,1,1.278.319l.128.371c.128.371.192.8.319,1.278a.4.4,0,0,0,.294.256.831.831,0,0,0,.5,0h0a7.984,7.984,0,0,1,3.334-.115h0a13.251,13.251,0,0,1,3.143,1.686h0a5.11,5.11,0,0,0,2.555.92h0a19.356,19.356,0,0,0,2.121,0h0a3.832,3.832,0,0,0,1.674-.575h0c1.137-.639,2.146-1.418,3.245-1.9h0a5.365,5.365,0,0,1,1.278-.153h0a17.884,17.884,0,0,1,2.734.141h.089a.524.524,0,0,0,.319-.179.421.421,0,0,0,.089-.192c0-.089,0-.128,0,0v-.077a3.832,3.832,0,0,1,.524-1.354.817.817,0,0,1,.562-.166h0a11.036,11.036,0,0,0,2.172-.613h0a1.968,1.968,0,0,0,.894-.588h0a.626.626,0,0,0-.192-.882Z" transform="translate(-82.637 -11.716)"/>
    </g>
  </g>
</svg>
